<svg width="1129" height="1228" viewBox="0 0 1129 1228" fill="none" xmlns="http://www.w3.org/2000/svg">
<path opacity="0.85" fill-rule="evenodd" clip-rule="evenodd" d="M847.95 272.042C875.78 301.532 975.602 396.35 983.349 454.568C991.096 512.786 866.933 577.83 786.176 601.856C705.525 625.911 651.124 654.258 541.336 624.727C419.591 592.105 447.692 550.084 448.131 485.591C448.57 421.098 478.263 234.089 557.925 156.06C606.063 108.91 758.328 177.476 847.95 272.042ZM877.423 472.645C881.529 430.478 783.07 301.206 751.345 279.006C734.716 267.358 656.037 241.396 599.355 239.908C577.001 239.398 491.773 497.399 513.092 519.664C534.382 542.036 644.541 563.791 670.546 569.845C700.094 576.735 873.288 514.918 877.423 472.645Z" fill="#F5EBD9"/>
<path opacity="0.75" fill-rule="evenodd" clip-rule="evenodd" d="M751.924 20.9238C821.215 77.807 980.103 207.752 1057.97 265.636C1135.8 323.63 1213.63 430.068 1131.24 544.399C1039.31 671.856 831.618 759.002 732.776 772.366C633.963 785.621 375.037 732.725 351.585 609.486C327.995 486.328 403.711 207.274 462.666 91.9688C521.732 -23.3071 623.939 -83.9906 751.924 20.9238ZM586.971 72.4581C440.259 138.194 373.708 544.087 395.704 596.197C417.56 648.387 467.281 691.185 583.477 698.857C699.673 706.53 797.216 681.735 907.732 623.042C1018.17 564.21 1058.07 523.97 1058.15 463.392C1058.16 382.398 980.613 342.176 906.871 259.223C856.367 202.187 777.738 149.865 729.128 109.96C680.518 70.0539 627.97 54.0872 586.971 72.4581Z" fill="#F5EBD9"/>
<path opacity="0.45" fill-rule="evenodd" clip-rule="evenodd" d="M825.2 -125.718C962.311 -58.9207 978.09 13.2872 1094.94 106.113C1228.04 212.028 1420.62 347.688 1313.94 550.829C1205.73 757.057 1002.07 890.35 855.571 909.465C621.787 939.968 344.628 834.945 273.776 663.048C218.547 528.716 233.898 438.812 281.938 228.869C343.36 -39.5512 604.836 -233.346 825.2 -125.718ZM498.086 -7.32946C292.758 211.51 278.604 450.47 324.939 638.865C344.903 720.233 466.452 815.368 638.642 826.904C810.875 838.277 901.303 823.65 1065.12 736.651C1228.77 649.609 1285.84 475.671 1257.26 390.595C1228.52 305.475 1092.65 217.943 1007.9 152.068C918.655 82.7187 832.421 -53.5317 735.473 -71.2954C643.829 -87.9871 545.996 -53.7345 498.086 -7.32946Z" fill="#F5EBD9"/>
<path opacity="0.25" fill-rule="evenodd" clip-rule="evenodd" d="M1489.23 369.232C1486.92 496.533 1459.67 698.988 1278.9 877.898C1098.09 1056.97 792.036 1129.57 567.367 1028.7C342.761 927.928 201.349 766.195 148.118 550.036C94.8248 333.781 264.291 -65.5057 387.225 -137.993C510.158 -210.48 675.965 -354.478 1003.29 -234.669C1188.8 -166.718 1304.26 -5.44898 1384.3 101.146C1464.24 207.803 1490.22 316.366 1489.23 369.232ZM1148.35 -24.5308C1103.73 -83.5271 986.934 -220.222 809.673 -236.575C632.475 -252.833 459.212 -154.233 330.996 1.10633C268.18 81.1334 154.209 331.852 199.201 563.723C244.254 795.69 442.684 930.931 620.577 989.3C798.471 1047.67 1065.37 1042.93 1273.64 804.461C1481.75 565.961 1447.02 378.556 1405.27 258.12C1363.67 137.718 1214.59 62.7881 1148.35 -24.5308Z" fill="#F5EBD9"/>
<path fill-rule="evenodd" clip-rule="evenodd" d="M677.902 447.672C684.41 456.978 671.786 494.531 663.074 499.135C654.38 503.674 621.827 487.181 615.537 474.741C612.853 469.512 619.924 446.221 624.242 443.285C632.485 437.584 671.46 438.383 677.902 447.672Z" fill="#F5EBD9"/>
</svg>
