<svg width="307" height="303" viewBox="0 0 307 303" fill="none" xmlns="http://www.w3.org/2000/svg">
<path d="M105.641 6.69824C133.761 -0.26378 179.778 -6.15726 229.664 22.877C279.209 51.6896 312.952 113.598 304.779 168.181L304.578 169.469C295.729 224.111 268.899 264.263 225.229 288.605L224.194 289.178C202.165 301.263 166.716 303.968 133.74 300.751C117.28 299.145 101.497 296.07 88.3965 291.985C75.2602 287.89 64.9457 282.819 59.2998 277.297C47.568 265.823 31.5016 253.275 19.1592 233.684C6.85669 214.155 -1.7279 187.616 1.79785 148.293C5.54562 106.61 30.8832 73.5354 49.5596 49.8408L53.1973 45.2275C71.6082 21.8775 93.4582 9.9128 105.094 6.83789L105.641 6.69824Z" fill="#D4856A" stroke="#FDF9EE" stroke-width="2"/>
<path d="M107.458 112.25C107.498 112.25 107.518 112.31 107.518 112.43C107.518 112.55 107.498 112.61 107.458 112.61C106.758 112.61 106.238 112.75 105.898 113.03C105.558 113.29 105.328 113.82 105.208 114.62L103.138 128.57C103.078 128.93 103.048 129.24 103.048 129.5C103.048 129.96 103.168 130.27 103.408 130.43C103.648 130.57 104.098 130.64 104.758 130.64C104.818 130.64 104.848 130.7 104.848 130.82C104.848 130.94 104.818 131 104.758 131C104.218 131 103.788 130.99 103.468 130.97L101.518 130.94L99.628 130.97C99.308 130.99 98.858 131 98.278 131C98.238 131 98.218 130.94 98.218 130.82C98.218 130.7 98.238 130.64 98.278 130.64C98.878 130.64 99.328 130.59 99.628 130.49C99.928 130.39 100.148 130.2 100.288 129.92C100.428 129.62 100.538 129.17 100.618 128.57L102.748 114.26L94.408 130.79C94.368 130.87 94.298 130.91 94.198 130.91C94.098 130.91 94.028 130.86 93.988 130.76L90.658 114.86L88.378 127.31C88.298 127.71 88.258 128.12 88.258 128.54C88.258 129.94 88.818 130.64 89.938 130.64C89.978 130.64 89.998 130.7 89.998 130.82C89.998 130.94 89.978 131 89.938 131C89.478 131 89.118 130.99 88.858 130.97L87.358 130.94L85.978 130.97C85.718 130.99 85.338 131 84.838 131C84.798 131 84.778 130.94 84.778 130.82C84.778 130.7 84.798 130.64 84.838 130.64C85.538 130.64 86.128 130.36 86.608 129.8C87.088 129.24 87.428 128.43 87.628 127.37L90.178 113.63C89.738 112.95 89.048 112.61 88.108 112.61C88.068 112.61 88.048 112.55 88.048 112.43C88.048 112.31 88.068 112.25 88.108 112.25C88.448 112.25 88.708 112.26 88.888 112.28L89.938 112.31L91.438 112.28C91.618 112.26 91.828 112.25 92.068 112.25C92.288 112.25 92.458 112.35 92.578 112.55C92.718 112.75 92.858 113.17 92.998 113.81L95.758 126.86L102.718 113C102.818 112.78 102.968 112.6 103.168 112.46C103.368 112.32 103.568 112.25 103.768 112.25C104.008 112.25 104.208 112.26 104.368 112.28L105.508 112.31L106.678 112.28C106.858 112.26 107.118 112.25 107.458 112.25ZM114.846 124.55C115.566 124.55 116.126 124.73 116.526 125.09C116.946 125.45 117.156 125.96 117.156 126.62C117.156 127.36 116.896 128.1 116.376 128.84C115.876 129.58 115.176 130.19 114.276 130.67C113.396 131.15 112.426 131.39 111.366 131.39C110.386 131.39 109.666 131.22 109.206 130.88C108.746 130.52 108.516 129.93 108.516 129.11C108.516 128.73 108.556 128.35 108.636 127.97L109.746 122.09C109.806 121.81 109.836 121.57 109.836 121.37C109.836 120.81 109.646 120.53 109.266 120.53C108.846 120.53 108.246 120.95 107.466 121.79C107.446 121.81 107.416 121.82 107.376 121.82C107.296 121.82 107.236 121.79 107.196 121.73C107.156 121.65 107.166 121.59 107.226 121.55C107.926 120.71 108.556 120.1 109.116 119.72C109.676 119.34 110.236 119.15 110.796 119.15C111.236 119.15 111.556 119.28 111.756 119.54C111.976 119.78 112.086 120.16 112.086 120.68C112.086 120.88 112.046 121.26 111.966 121.82L111.186 126.2C111.586 125.68 112.106 125.28 112.746 125C113.386 124.7 114.086 124.55 114.846 124.55ZM123.336 128.66C123.376 128.62 123.406 128.6 123.426 128.6C123.486 128.6 123.536 128.64 123.576 128.72C123.616 128.78 123.616 128.84 123.576 128.9C122.876 129.72 122.236 130.32 121.656 130.7C121.076 131.08 120.526 131.27 120.006 131.27C119.126 131.27 118.686 130.75 118.686 129.71C118.686 129.53 118.726 129.16 118.806 128.6L120.366 119.72C120.426 119.36 120.906 119.18 121.806 119.18C122.406 119.18 122.706 119.25 122.706 119.39L122.586 119.99C122.426 120.55 122.306 121.1 122.226 121.64L121.026 128.33C120.986 128.51 120.966 128.74 120.966 129.02C120.966 129.6 121.146 129.89 121.506 129.89C121.706 129.89 121.966 129.79 122.286 129.59C122.606 129.37 122.956 129.06 123.336 128.66ZM114.726 127.34C114.726 126.76 114.586 126.32 114.306 126.02C114.046 125.7 113.706 125.54 113.286 125.54C112.766 125.54 112.276 125.77 111.816 126.23C111.356 126.67 111.036 127.29 110.856 128.09C110.796 128.45 110.766 128.77 110.766 129.05C110.766 129.65 110.896 130.11 111.156 130.43C111.416 130.73 111.776 130.88 112.236 130.88C112.716 130.88 113.146 130.69 113.526 130.31C113.906 129.93 114.196 129.47 114.396 128.93C114.616 128.37 114.726 127.84 114.726 127.34ZM150.855 128.69C150.895 128.65 150.925 128.63 150.945 128.63C151.005 128.63 151.055 128.67 151.095 128.75C151.135 128.81 151.135 128.87 151.095 128.93C150.395 129.73 149.785 130.32 149.265 130.7C148.745 131.08 148.215 131.27 147.675 131.27C146.795 131.27 146.355 130.74 146.355 129.68C146.355 129.34 146.405 128.89 146.505 128.33L147.405 123.56C147.505 122.92 147.555 122.44 147.555 122.12C147.555 121.08 147.235 120.56 146.595 120.56C146.075 120.56 145.515 120.92 144.915 121.64C144.335 122.34 143.775 123.38 143.235 124.76C142.695 126.14 142.245 127.79 141.885 129.71L141.705 130.7C141.645 131.06 141.165 131.24 140.265 131.24C139.665 131.24 139.365 131.17 139.365 131.03L139.515 130.4C139.555 130.24 139.605 130.03 139.665 129.77C139.725 129.49 139.785 129.16 139.845 128.78L140.805 123.5C140.905 122.9 140.955 122.45 140.955 122.15C140.955 121.09 140.615 120.56 139.935 120.56C139.395 120.56 138.825 120.93 138.225 121.67C137.645 122.41 137.085 123.49 136.545 124.91C136.005 126.31 135.555 127.96 135.195 129.86L135.045 130.7C134.985 131.06 134.505 131.24 133.605 131.24C133.025 131.24 132.735 131.17 132.735 131.03L132.885 130.31L133.185 128.84L134.415 122.09C134.455 121.91 134.475 121.68 134.475 121.4C134.475 120.82 134.295 120.53 133.935 120.53C133.735 120.53 133.475 120.64 133.155 120.86C132.835 121.06 132.485 121.36 132.105 121.76L131.985 121.82C131.925 121.82 131.875 121.79 131.835 121.73C131.795 121.65 131.805 121.58 131.865 121.52C132.565 120.7 133.195 120.1 133.755 119.72C134.335 119.34 134.905 119.15 135.465 119.15C135.905 119.15 136.225 119.28 136.425 119.54C136.645 119.78 136.755 120.16 136.755 120.68C136.755 120.88 136.715 121.26 136.635 121.82L136.125 124.61C136.805 122.83 137.585 121.46 138.465 120.5C139.365 119.52 140.315 119.03 141.315 119.03C142.595 119.03 143.235 119.83 143.235 121.43C143.235 121.81 143.185 122.32 143.085 122.96L142.785 124.55C143.485 122.79 144.275 121.43 145.155 120.47C146.055 119.51 146.985 119.03 147.945 119.03C149.205 119.03 149.835 119.82 149.835 121.4C149.835 121.96 149.785 122.49 149.685 122.99L148.695 128.33C148.635 128.63 148.605 128.87 148.605 129.05C148.605 129.59 148.775 129.86 149.115 129.86C149.315 129.86 149.555 129.77 149.835 129.59C150.115 129.39 150.455 129.09 150.855 128.69ZM159.84 119.03C160.56 119.03 161.12 119.15 161.52 119.39C161.92 119.63 162.12 119.97 162.12 120.41C162.12 121.33 161.44 122.19 160.08 122.99C158.74 123.79 157.12 124.36 155.22 124.7C155.14 125.38 155.1 125.86 155.1 126.14C155.1 127.36 155.35 128.34 155.85 129.08C156.37 129.8 157.13 130.16 158.13 130.16C158.59 130.16 159.06 130.08 159.54 129.92C160.04 129.76 160.51 129.52 160.95 129.2L161.01 129.17C161.05 129.17 161.09 129.21 161.13 129.29C161.17 129.35 161.18 129.4 161.16 129.44C159.78 130.72 158.26 131.36 156.6 131.36C155.26 131.36 154.24 130.94 153.54 130.1C152.86 129.26 152.52 128.2 152.52 126.92C152.52 126.48 152.57 125.99 152.67 125.45C152.87 124.39 153.31 123.37 153.99 122.39C154.67 121.39 155.52 120.58 156.54 119.96C157.58 119.34 158.68 119.03 159.84 119.03ZM159.42 121.28C159.44 121.2 159.45 121.08 159.45 120.92C159.45 120.58 159.35 120.32 159.15 120.14C158.95 119.94 158.68 119.84 158.34 119.84C157.6 119.84 156.96 120.25 156.42 121.07C155.9 121.89 155.52 122.95 155.28 124.25C157.8 123.69 159.18 122.7 159.42 121.28ZM164.747 128.21C165.327 128.21 165.777 128.4 166.097 128.78C166.417 129.14 166.577 129.64 166.577 130.28C166.577 130.46 166.537 130.79 166.457 131.27C166.297 132.07 165.907 132.87 165.287 133.67C164.687 134.49 163.947 135.2 163.067 135.8L163.007 135.83C162.927 135.83 162.867 135.79 162.827 135.71C162.787 135.63 162.797 135.57 162.857 135.53C164.237 134.37 165.037 133.13 165.257 131.81C165.297 131.61 165.317 131.46 165.317 131.36C165.317 131.28 165.297 131.16 165.257 131C165.057 131.16 164.807 131.24 164.507 131.24C164.027 131.24 163.657 131.1 163.397 130.82C163.157 130.52 163.037 130.17 163.037 129.77C163.037 129.33 163.187 128.96 163.487 128.66C163.787 128.36 164.207 128.21 164.747 128.21ZM186.462 121.1C186.122 121.1 185.692 121.38 185.172 121.94C184.652 122.48 183.982 123.4 183.162 124.7C183.742 124.72 184.182 124.81 184.482 124.97C184.782 125.11 185.022 125.36 185.202 125.72C185.402 126.06 185.692 126.69 186.072 127.61C186.152 127.77 186.272 128.06 186.432 128.48C186.612 128.9 186.782 129.2 186.942 129.38C187.102 129.54 187.272 129.62 187.452 129.62C187.632 129.62 187.802 129.56 187.962 129.44C188.142 129.32 188.312 129.18 188.472 129.02C188.632 128.86 188.742 128.76 188.802 128.72C188.842 128.68 188.882 128.66 188.922 128.66C188.982 128.66 189.032 128.7 189.072 128.78C189.112 128.84 189.102 128.9 189.042 128.96C188.282 129.86 187.702 130.48 187.302 130.82C186.902 131.16 186.472 131.33 186.012 131.33C185.572 131.33 185.212 131.12 184.932 130.7C184.652 130.26 184.252 129.38 183.732 128.06C183.372 127.18 183.092 126.57 182.892 126.23C182.692 125.87 182.462 125.62 182.202 125.48C181.962 125.34 181.612 125.27 181.152 125.27L180.192 130.7C180.132 131.06 179.652 131.24 178.752 131.24C178.172 131.24 177.882 131.17 177.882 131.03L178.002 130.37C178.202 129.43 178.312 128.9 178.332 128.78L179.562 122.09C179.602 121.91 179.622 121.68 179.622 121.4C179.622 120.82 179.442 120.53 179.082 120.53C178.882 120.53 178.622 120.64 178.302 120.86C177.982 121.06 177.632 121.36 177.252 121.76L177.132 121.82C177.072 121.82 177.022 121.79 176.982 121.73C176.942 121.65 176.952 121.58 177.012 121.52C177.712 120.7 178.342 120.1 178.902 119.72C179.482 119.34 180.052 119.15 180.612 119.15C181.052 119.15 181.372 119.28 181.572 119.54C181.792 119.78 181.902 120.16 181.902 120.68C181.902 120.88 181.862 121.26 181.782 121.82L181.272 124.73L182.712 124.7C183.712 122.72 184.622 121.3 185.442 120.44C186.262 119.56 187.082 119.12 187.902 119.12C188.402 119.12 188.782 119.26 189.042 119.54C189.302 119.82 189.402 120.16 189.342 120.56C189.302 120.84 189.162 121.09 188.922 121.31C188.702 121.51 188.412 121.61 188.052 121.61C187.772 121.61 187.452 121.51 187.092 121.31C187.052 121.29 186.962 121.25 186.822 121.19C186.702 121.13 186.582 121.1 186.462 121.1ZM209.449 128.69C209.489 128.65 209.519 128.63 209.539 128.63C209.599 128.63 209.649 128.67 209.689 128.75C209.729 128.81 209.729 128.87 209.689 128.93C208.989 129.73 208.379 130.32 207.859 130.7C207.339 131.08 206.809 131.27 206.269 131.27C205.389 131.27 204.949 130.74 204.949 129.68C204.949 129.34 204.999 128.89 205.099 128.33L205.999 123.56C206.099 122.92 206.149 122.44 206.149 122.12C206.149 121.08 205.829 120.56 205.189 120.56C204.669 120.56 204.109 120.92 203.509 121.64C202.929 122.34 202.369 123.38 201.829 124.76C201.289 126.14 200.839 127.79 200.479 129.71L200.299 130.7C200.239 131.06 199.759 131.24 198.859 131.24C198.259 131.24 197.959 131.17 197.959 131.03L198.109 130.4C198.149 130.24 198.199 130.03 198.259 129.77C198.319 129.49 198.379 129.16 198.439 128.78L199.399 123.5C199.499 122.9 199.549 122.45 199.549 122.15C199.549 121.09 199.209 120.56 198.529 120.56C197.989 120.56 197.419 120.93 196.819 121.67C196.239 122.41 195.679 123.49 195.139 124.91C194.599 126.31 194.149 127.96 193.789 129.86L193.639 130.7C193.579 131.06 193.099 131.24 192.199 131.24C191.619 131.24 191.329 131.17 191.329 131.03L191.479 130.31L191.779 128.84L193.009 122.09C193.049 121.91 193.069 121.68 193.069 121.4C193.069 120.82 192.889 120.53 192.529 120.53C192.329 120.53 192.069 120.64 191.749 120.86C191.429 121.06 191.079 121.36 190.699 121.76L190.579 121.82C190.519 121.82 190.469 121.79 190.429 121.73C190.389 121.65 190.399 121.58 190.459 121.52C191.159 120.7 191.789 120.1 192.349 119.72C192.929 119.34 193.499 119.15 194.059 119.15C194.499 119.15 194.819 119.28 195.019 119.54C195.239 119.78 195.349 120.16 195.349 120.68C195.349 120.88 195.309 121.26 195.229 121.82L194.719 124.61C195.399 122.83 196.179 121.46 197.059 120.5C197.959 119.52 198.909 119.03 199.909 119.03C201.189 119.03 201.829 119.83 201.829 121.43C201.829 121.81 201.779 122.32 201.679 122.96L201.379 124.55C202.079 122.79 202.869 121.43 203.749 120.47C204.649 119.51 205.579 119.03 206.539 119.03C207.799 119.03 208.429 119.82 208.429 121.4C208.429 121.96 208.379 122.49 208.279 122.99L207.289 128.33C207.229 128.63 207.199 128.87 207.199 129.05C207.199 129.59 207.369 129.86 207.709 129.86C207.909 129.86 208.149 129.77 208.429 129.59C208.709 129.39 209.049 129.09 209.449 128.69ZM215.134 131.42C213.854 131.42 212.864 131 212.164 130.16C211.484 129.32 211.144 128.23 211.144 126.89C211.144 126.33 211.204 125.77 211.324 125.21C211.544 124.03 211.974 122.97 212.614 122.03C213.254 121.09 214.024 120.36 214.924 119.84C215.844 119.3 216.814 119.03 217.834 119.03C219.154 119.03 220.164 119.45 220.864 120.29C221.564 121.11 221.914 122.19 221.914 123.53C221.914 124.07 221.854 124.63 221.734 125.21C221.474 126.49 221.004 127.6 220.324 128.54C219.644 129.48 218.844 130.2 217.924 130.7C217.004 131.18 216.074 131.42 215.134 131.42ZM216.154 130.67C216.854 130.67 217.474 130.3 218.014 129.56C218.554 128.82 218.944 127.81 219.184 126.53C219.324 125.85 219.394 125.13 219.394 124.37C219.394 123.05 219.164 121.95 218.704 121.07C218.264 120.19 217.654 119.75 216.874 119.75C216.194 119.75 215.584 120.11 215.044 120.83C214.504 121.55 214.114 122.58 213.874 123.92C213.734 124.62 213.664 125.34 213.664 126.08C213.664 127.4 213.884 128.5 214.324 129.38C214.764 130.24 215.374 130.67 216.154 130.67ZM53.7051 148.13C53.7051 148.75 53.4051 149.37 52.8051 149.99C52.2051 150.59 51.3951 151.07 50.3751 151.43C51.2951 151.51 52.0251 151.79 52.5651 152.27C53.1251 152.75 53.4051 153.35 53.4051 154.07C53.4051 154.69 53.1851 155.34 52.7451 156.02C52.3051 156.7 51.6651 157.27 50.8251 157.73C49.9851 158.19 48.9851 158.42 47.8251 158.42C46.2451 158.42 45.0651 157.99 44.2851 157.13C43.5051 156.27 43.1151 155.18 43.1151 153.86C43.1151 153.42 43.1651 152.92 43.2651 152.36C43.5051 151.24 43.9451 150.2 44.5851 149.24C45.2451 148.26 46.0751 147.48 47.0751 146.9C48.0951 146.32 49.2251 146.03 50.4651 146.03C51.4851 146.03 52.2751 146.23 52.8351 146.63C53.4151 147.03 53.7051 147.53 53.7051 148.13ZM51.2151 148.79C51.2351 148.67 51.2451 148.5 51.2451 148.28C51.2451 147.68 51.0951 147.24 50.7951 146.96C50.4951 146.68 50.1051 146.54 49.6251 146.54C48.6851 146.54 47.8651 147.02 47.1651 147.98C46.4851 148.92 46.0151 150.1 45.7551 151.52C45.6351 152.14 45.5751 152.77 45.5751 153.41C45.5751 154.71 45.8251 155.78 46.3251 156.62C46.8451 157.46 47.5951 157.88 48.5751 157.88C49.3751 157.88 49.9851 157.59 50.4051 157.01C50.8451 156.41 51.0651 155.68 51.0651 154.82C51.0651 154.02 50.8251 153.41 50.3451 152.99C49.8851 152.55 49.2251 152.33 48.3651 152.33C48.1851 152.33 47.7551 152.37 47.0751 152.45H47.0451C46.8851 152.45 46.8051 152.36 46.8051 152.18C46.8051 152.06 46.8651 151.99 46.9851 151.97C48.4651 151.61 49.5051 151.21 50.1051 150.77C50.7051 150.33 51.0751 149.67 51.2151 148.79ZM59.6114 158.42C58.3314 158.42 57.3414 158 56.6414 157.16C55.9614 156.32 55.6214 155.23 55.6214 153.89C55.6214 153.33 55.6814 152.77 55.8014 152.21C56.0214 151.03 56.4514 149.97 57.0914 149.03C57.7314 148.09 58.5014 147.36 59.4014 146.84C60.3214 146.3 61.2914 146.03 62.3114 146.03C63.6314 146.03 64.6414 146.45 65.3414 147.29C66.0414 148.11 66.3914 149.19 66.3914 150.53C66.3914 151.07 66.3314 151.63 66.2114 152.21C65.9514 153.49 65.4814 154.6 64.8014 155.54C64.1214 156.48 63.3214 157.2 62.4014 157.7C61.4814 158.18 60.5514 158.42 59.6114 158.42ZM60.6314 157.67C61.3314 157.67 61.9514 157.3 62.4914 156.56C63.0314 155.82 63.4214 154.81 63.6614 153.53C63.8014 152.85 63.8714 152.13 63.8714 151.37C63.8714 150.05 63.6414 148.95 63.1814 148.07C62.7414 147.19 62.1314 146.75 61.3514 146.75C60.6714 146.75 60.0614 147.11 59.5214 147.83C58.9814 148.55 58.5914 149.58 58.3514 150.92C58.2114 151.62 58.1414 152.34 58.1414 153.08C58.1414 154.4 58.3614 155.5 58.8014 156.38C59.2414 157.24 59.8514 157.67 60.6314 157.67ZM76.2696 148.31C76.2696 149.01 75.9796 149.67 75.3996 150.29C74.8396 150.89 74.0996 151.33 73.1796 151.61C73.9996 151.67 74.6196 151.91 75.0396 152.33C75.4596 152.73 75.6696 153.26 75.6696 153.92C75.6696 154.74 75.4096 155.49 74.8896 156.17C74.3696 156.83 73.6896 157.36 72.8496 157.76C72.0096 158.14 71.1296 158.33 70.2096 158.33C69.3096 158.33 68.5796 158.17 68.0196 157.85C67.4596 157.51 67.1796 157.09 67.1796 156.59C67.1796 156.25 67.2796 155.97 67.4796 155.75C67.6796 155.53 67.9596 155.42 68.3196 155.42C68.6196 155.42 68.8496 155.51 69.0096 155.69C69.1696 155.85 69.3296 156.11 69.4896 156.47C69.6896 156.85 69.9196 157.15 70.1796 157.37C70.4596 157.57 70.8296 157.67 71.2896 157.67C72.3296 157.67 72.9896 156.97 73.2696 155.57C73.3296 155.23 73.3596 154.92 73.3596 154.64C73.3596 153.84 73.1496 153.2 72.7296 152.72C72.3296 152.22 71.7396 151.97 70.9596 151.97C70.8596 151.97 70.8096 151.91 70.8096 151.79C70.8096 151.67 70.8596 151.61 70.9596 151.61C71.8796 151.59 72.5696 151.4 73.0296 151.04C73.5096 150.66 73.8096 150.14 73.9296 149.48C73.9696 149.2 73.9896 148.99 73.9896 148.85C73.9896 148.27 73.7996 147.82 73.4196 147.5C73.0396 147.18 72.5596 147.02 71.9796 147.02C71.4396 147.02 70.8896 147.15 70.3296 147.41C69.7696 147.67 69.2996 148.04 68.9196 148.52C68.9196 148.54 68.8996 148.55 68.8596 148.55C68.7996 148.55 68.7396 148.53 68.6796 148.49C68.6196 148.43 68.5996 148.38 68.6196 148.34C69.1796 147.58 69.8796 147 70.7196 146.6C71.5596 146.18 72.3996 145.97 73.2396 145.97C74.1396 145.97 74.8696 146.19 75.4296 146.63C75.9896 147.07 76.2696 147.63 76.2696 148.31ZM88.5977 148.13C88.5977 148.75 88.2977 149.37 87.6977 149.99C87.0977 150.59 86.2877 151.07 85.2677 151.43C86.1877 151.51 86.9177 151.79 87.4577 152.27C88.0177 152.75 88.2977 153.35 88.2977 154.07C88.2977 154.69 88.0777 155.34 87.6377 156.02C87.1977 156.7 86.5577 157.27 85.7177 157.73C84.8777 158.19 83.8777 158.42 82.7177 158.42C81.1377 158.42 79.9577 157.99 79.1777 157.13C78.3977 156.27 78.0077 155.18 78.0077 153.86C78.0077 153.42 78.0577 152.92 78.1577 152.36C78.3977 151.24 78.8377 150.2 79.4777 149.24C80.1377 148.26 80.9677 147.48 81.9677 146.9C82.9877 146.32 84.1177 146.03 85.3577 146.03C86.3777 146.03 87.1677 146.23 87.7277 146.63C88.3077 147.03 88.5977 147.53 88.5977 148.13ZM86.1077 148.79C86.1277 148.67 86.1377 148.5 86.1377 148.28C86.1377 147.68 85.9877 147.24 85.6877 146.96C85.3877 146.68 84.9977 146.54 84.5177 146.54C83.5777 146.54 82.7577 147.02 82.0577 147.98C81.3777 148.92 80.9077 150.1 80.6477 151.52C80.5277 152.14 80.4677 152.77 80.4677 153.41C80.4677 154.71 80.7177 155.78 81.2177 156.62C81.7377 157.46 82.4877 157.88 83.4677 157.88C84.2677 157.88 84.8777 157.59 85.2977 157.01C85.7377 156.41 85.9577 155.68 85.9577 154.82C85.9577 154.02 85.7177 153.41 85.2377 152.99C84.7777 152.55 84.1177 152.33 83.2577 152.33C83.0777 152.33 82.6477 152.37 81.9677 152.45H81.9377C81.7777 152.45 81.6977 152.36 81.6977 152.18C81.6977 152.06 81.7577 151.99 81.8777 151.97C83.3577 151.61 84.3977 151.21 84.9977 150.77C85.5977 150.33 85.9677 149.67 86.1077 148.79ZM98.3439 146.21C99.3639 146.21 100.124 146.48 100.624 147.02C101.144 147.56 101.404 148.35 101.404 149.39C101.404 149.83 101.384 150.17 101.344 150.41C101.144 151.75 100.674 153.01 99.9339 154.19C99.2139 155.35 98.3339 156.28 97.2939 156.98C96.2739 157.68 95.2239 158.03 94.1439 158.03C93.7439 158.03 93.2839 158.01 92.7639 157.97L91.8039 163.34C91.7439 163.68 91.7139 163.96 91.7139 164.18C91.7139 164.5 91.7839 164.73 91.9239 164.87C92.0639 165.01 92.3039 165.08 92.6439 165.08C92.7439 165.08 92.9739 165.06 93.3339 165.02C93.4139 165.02 93.4639 165.07 93.4839 165.17C93.5039 165.29 93.4739 165.36 93.3939 165.38L87.8739 166.25C87.8139 166.27 87.7739 166.22 87.7539 166.1C87.7139 165.98 87.7339 165.91 87.8139 165.89C88.2339 165.79 88.5439 165.67 88.7439 165.53C88.9439 165.41 89.0939 165.21 89.1939 164.93C89.2939 164.65 89.3939 164.19 89.4939 163.55L92.0439 149.24C92.0439 149.24 91.7439 149.45 91.1439 149.87L90.6039 150.26L90.5439 150.29C90.4639 150.29 90.4039 150.24 90.3639 150.14C90.3239 150.04 90.3339 149.97 90.3939 149.93C90.9139 149.49 91.5039 149.04 92.1639 148.58L92.5539 146.42C92.5539 146.38 92.7539 146.23 93.1539 145.97C93.5739 145.69 93.9439 145.4 94.2639 145.1C94.5839 144.8 94.7839 144.47 94.8639 144.11L94.9839 144.05C95.0439 144.05 95.0939 144.07 95.1339 144.11C95.1939 144.13 95.2139 144.16 95.1939 144.2L94.6839 147.11C95.9839 146.51 97.2039 146.21 98.3439 146.21ZM98.9739 151.4C99.0139 151 99.0339 150.7 99.0339 150.5C99.0339 148.54 98.2039 147.56 96.5439 147.56C95.8639 147.56 95.1939 147.69 94.5339 147.95L92.9739 156.68C93.6339 156.98 94.3639 157.13 95.1639 157.13C96.2239 157.13 97.0639 156.62 97.6839 155.6C98.3239 154.56 98.7539 153.16 98.9739 151.4ZM114.342 155.69C114.362 155.67 114.392 155.66 114.432 155.66C114.492 155.66 114.542 155.7 114.582 155.78C114.642 155.84 114.652 155.89 114.612 155.93C113.292 157.49 112.162 158.27 111.222 158.27C110.322 158.27 109.872 157.72 109.872 156.62C109.872 156.18 109.912 155.75 109.992 155.33L110.412 152.93C109.612 154.61 108.662 155.94 107.562 156.92C106.482 157.9 105.432 158.39 104.412 158.39C103.792 158.39 103.312 158.21 102.972 157.85C102.632 157.47 102.462 156.9 102.462 156.14C102.462 154.76 102.892 153.28 103.752 151.7C104.632 150.1 105.712 148.76 106.992 147.68C108.292 146.58 109.512 146.03 110.652 146.03C111.032 146.03 111.402 146.1 111.762 146.24C112.142 146.36 112.472 146.55 112.752 146.81C113.152 146.47 113.442 146.13 113.622 145.79C113.662 145.75 113.702 145.73 113.742 145.73C113.802 145.73 113.862 145.75 113.922 145.79C113.982 145.81 114.002 145.84 113.982 145.88L112.212 155.33C112.172 155.53 112.152 155.78 112.152 156.08C112.152 156.6 112.302 156.86 112.602 156.86C112.982 156.86 113.562 156.47 114.342 155.69ZM106.062 156.44C106.782 156.44 107.522 156.04 108.282 155.24C109.062 154.42 109.712 153.44 110.232 152.3C110.752 151.16 111.012 150.16 111.012 149.3C111.012 148.7 110.862 148.23 110.562 147.89C110.262 147.53 109.842 147.36 109.302 147.38C108.662 147.38 108.042 147.64 107.442 148.16C106.842 148.66 106.322 149.35 105.882 150.23C105.442 151.11 105.132 152.1 104.952 153.2C104.872 153.68 104.832 154.15 104.832 154.61C104.832 155.83 105.242 156.44 106.062 156.44ZM134.994 155.9C134.034 157.4 133.554 158.63 133.554 159.59C133.554 159.93 133.604 160.3 133.704 160.7C133.784 161.18 133.824 161.53 133.824 161.75C133.824 161.89 133.814 162 133.794 162.08C133.714 162.52 133.494 162.96 133.134 163.4C132.794 163.84 132.144 164.35 131.184 164.93H131.154C131.114 164.93 131.064 164.89 131.004 164.81C130.964 164.75 130.964 164.7 131.004 164.66C131.484 164.32 131.764 163.88 131.844 163.34C131.864 163.26 131.874 163.13 131.874 162.95C131.874 162.71 131.834 162.37 131.754 161.93C131.654 161.49 131.604 161.09 131.604 160.73C131.604 160.19 131.684 159.72 131.844 159.32C132.024 158.92 132.344 158.44 132.804 157.88C132.324 158.14 131.864 158.27 131.424 158.27C130.964 158.27 130.624 158.15 130.404 157.91C130.204 157.65 130.104 157.26 130.104 156.74C130.104 156.54 130.144 156.16 130.224 155.6L130.704 152.87C130.044 154.63 129.264 155.99 128.364 156.95C127.464 157.91 126.524 158.39 125.544 158.39C124.264 158.39 123.624 157.61 123.624 156.05C123.624 155.59 123.684 155.06 123.804 154.46L124.104 152.75C123.424 154.55 122.634 155.94 121.734 156.92C120.834 157.9 119.894 158.39 118.914 158.39C117.654 158.39 117.024 157.6 117.024 156.02C117.024 155.46 117.074 154.93 117.174 154.43L118.164 149.09C118.224 148.79 118.254 148.55 118.254 148.37C118.254 147.83 118.084 147.56 117.744 147.56C117.544 147.56 117.314 147.66 117.054 147.86C116.794 148.04 116.454 148.33 116.034 148.73C115.994 148.77 115.954 148.79 115.914 148.79C115.854 148.79 115.804 148.76 115.764 148.7C115.724 148.62 115.724 148.55 115.764 148.49C116.464 147.69 117.074 147.1 117.594 146.72C118.114 146.34 118.644 146.15 119.184 146.15C120.064 146.15 120.504 146.68 120.504 147.74C120.504 148.08 120.454 148.53 120.354 149.09L119.484 153.86C119.384 154.52 119.334 155.02 119.334 155.36C119.334 156.36 119.644 156.86 120.264 156.86C120.784 156.86 121.344 156.5 121.944 155.78C122.544 155.04 123.114 153.96 123.654 152.54C124.214 151.12 124.674 149.41 125.034 147.41L125.154 146.72C125.254 146.36 125.734 146.18 126.594 146.18C127.194 146.18 127.494 146.25 127.494 146.39C127.474 146.51 127.404 146.81 127.284 147.29C127.184 147.77 127.104 148.22 127.044 148.64L126.054 153.92C125.954 154.52 125.904 154.97 125.904 155.27C125.904 156.33 126.244 156.86 126.924 156.86C127.444 156.86 128.004 156.5 128.604 155.78C129.204 155.04 129.774 153.97 130.314 152.57C130.854 151.17 131.304 149.52 131.664 147.62L131.814 146.72C131.874 146.36 132.354 146.18 133.254 146.18C133.834 146.18 134.124 146.25 134.124 146.39L134.004 146.99C133.884 147.57 133.784 148.1 133.704 148.58L132.444 155.33C132.404 155.51 132.384 155.74 132.384 156.02C132.384 156.6 132.564 156.89 132.924 156.89C133.384 156.89 133.994 156.48 134.754 155.66C134.794 155.62 134.824 155.6 134.844 155.6C134.904 155.6 134.954 155.64 134.994 155.72C135.054 155.78 135.054 155.84 134.994 155.9ZM148.034 155.69C148.054 155.67 148.084 155.66 148.124 155.66C148.184 155.66 148.234 155.7 148.274 155.78C148.334 155.84 148.344 155.89 148.304 155.93C146.984 157.49 145.854 158.27 144.914 158.27C144.014 158.27 143.564 157.72 143.564 156.62C143.564 156.18 143.604 155.75 143.684 155.33L144.104 152.93C143.304 154.61 142.354 155.94 141.254 156.92C140.174 157.9 139.124 158.39 138.104 158.39C137.484 158.39 137.004 158.21 136.664 157.85C136.324 157.47 136.154 156.9 136.154 156.14C136.154 154.76 136.584 153.28 137.444 151.7C138.324 150.1 139.404 148.76 140.684 147.68C141.984 146.58 143.204 146.03 144.344 146.03C144.724 146.03 145.094 146.1 145.454 146.24C145.834 146.36 146.164 146.55 146.444 146.81C146.844 146.47 147.134 146.13 147.314 145.79C147.354 145.75 147.394 145.73 147.434 145.73C147.494 145.73 147.554 145.75 147.614 145.79C147.674 145.81 147.694 145.84 147.674 145.88L145.904 155.33C145.864 155.53 145.844 155.78 145.844 156.08C145.844 156.6 145.994 156.86 146.294 156.86C146.674 156.86 147.254 156.47 148.034 155.69ZM139.754 156.44C140.474 156.44 141.214 156.04 141.974 155.24C142.754 154.42 143.404 153.44 143.924 152.3C144.444 151.16 144.704 150.16 144.704 149.3C144.704 148.7 144.554 148.23 144.254 147.89C143.954 147.53 143.534 147.36 142.994 147.38C142.354 147.38 141.734 147.64 141.134 148.16C140.534 148.66 140.014 149.35 139.574 150.23C139.134 151.11 138.824 152.1 138.644 153.2C138.564 153.68 138.524 154.15 138.524 154.61C138.524 155.83 138.934 156.44 139.754 156.44ZM156.896 146.03C157.616 146.03 158.176 146.15 158.576 146.39C158.976 146.63 159.176 146.97 159.176 147.41C159.176 148.33 158.496 149.19 157.136 149.99C155.796 150.79 154.176 151.36 152.276 151.7C152.196 152.38 152.156 152.86 152.156 153.14C152.156 154.36 152.406 155.34 152.906 156.08C153.426 156.8 154.186 157.16 155.186 157.16C155.646 157.16 156.116 157.08 156.596 156.92C157.096 156.76 157.566 156.52 158.006 156.2L158.066 156.17C158.106 156.17 158.146 156.21 158.186 156.29C158.226 156.35 158.236 156.4 158.216 156.44C156.836 157.72 155.316 158.36 153.656 158.36C152.316 158.36 151.296 157.94 150.596 157.1C149.916 156.26 149.576 155.2 149.576 153.92C149.576 153.48 149.626 152.99 149.726 152.45C149.926 151.39 150.366 150.37 151.046 149.39C151.726 148.39 152.576 147.58 153.596 146.96C154.636 146.34 155.736 146.03 156.896 146.03ZM156.476 148.28C156.496 148.2 156.506 148.08 156.506 147.92C156.506 147.58 156.406 147.32 156.206 147.14C156.006 146.94 155.736 146.84 155.396 146.84C154.656 146.84 154.016 147.25 153.476 148.07C152.956 148.89 152.576 149.95 152.336 151.25C154.856 150.69 156.236 149.7 156.476 148.28ZM179.083 155.69C179.123 155.65 179.153 155.63 179.173 155.63C179.233 155.63 179.283 155.67 179.323 155.75C179.363 155.81 179.363 155.87 179.323 155.93C178.623 156.73 178.013 157.32 177.493 157.7C176.973 158.08 176.443 158.27 175.903 158.27C175.023 158.27 174.583 157.74 174.583 156.68C174.583 156.34 174.633 155.89 174.733 155.33L175.633 150.56C175.733 149.92 175.783 149.44 175.783 149.12C175.783 148.08 175.463 147.56 174.823 147.56C174.303 147.56 173.743 147.92 173.143 148.64C172.563 149.34 172.003 150.38 171.463 151.76C170.923 153.14 170.473 154.79 170.113 156.71L169.933 157.7C169.873 158.06 169.393 158.24 168.493 158.24C167.893 158.24 167.593 158.17 167.593 158.03L167.743 157.4C167.783 157.24 167.833 157.03 167.893 156.77C167.953 156.49 168.013 156.16 168.073 155.78L169.033 150.5C169.133 149.9 169.183 149.45 169.183 149.15C169.183 148.09 168.843 147.56 168.163 147.56C167.623 147.56 167.053 147.93 166.453 148.67C165.873 149.41 165.313 150.49 164.773 151.91C164.233 153.31 163.783 154.96 163.423 156.86L163.273 157.7C163.213 158.06 162.733 158.24 161.833 158.24C161.253 158.24 160.963 158.17 160.963 158.03L161.113 157.31L161.413 155.84L162.643 149.09C162.683 148.91 162.703 148.68 162.703 148.4C162.703 147.82 162.523 147.53 162.163 147.53C161.963 147.53 161.703 147.64 161.383 147.86C161.063 148.06 160.713 148.36 160.333 148.76L160.213 148.82C160.153 148.82 160.103 148.79 160.063 148.73C160.023 148.65 160.033 148.58 160.093 148.52C160.793 147.7 161.423 147.1 161.983 146.72C162.563 146.34 163.133 146.15 163.693 146.15C164.133 146.15 164.453 146.28 164.653 146.54C164.873 146.78 164.983 147.16 164.983 147.68C164.983 147.88 164.943 148.26 164.863 148.82L164.353 151.61C165.033 149.83 165.813 148.46 166.693 147.5C167.593 146.52 168.543 146.03 169.543 146.03C170.823 146.03 171.463 146.83 171.463 148.43C171.463 148.81 171.413 149.32 171.313 149.96L171.013 151.55C171.713 149.79 172.503 148.43 173.383 147.47C174.283 146.51 175.213 146.03 176.173 146.03C177.433 146.03 178.063 146.82 178.063 148.4C178.063 148.96 178.013 149.49 177.913 149.99L176.923 155.33C176.863 155.63 176.833 155.87 176.833 156.05C176.833 156.59 177.003 156.86 177.343 156.86C177.543 156.86 177.783 156.77 178.063 156.59C178.343 156.39 178.683 156.09 179.083 155.69ZM198.373 148.13C198.373 148.75 198.073 149.37 197.473 149.99C196.873 150.59 196.063 151.07 195.043 151.43C195.963 151.51 196.693 151.79 197.233 152.27C197.793 152.75 198.073 153.35 198.073 154.07C198.073 154.69 197.853 155.34 197.413 156.02C196.973 156.7 196.333 157.27 195.493 157.73C194.653 158.19 193.653 158.42 192.493 158.42C190.913 158.42 189.733 157.99 188.953 157.13C188.173 156.27 187.783 155.18 187.783 153.86C187.783 153.42 187.833 152.92 187.933 152.36C188.173 151.24 188.613 150.2 189.253 149.24C189.913 148.26 190.743 147.48 191.743 146.9C192.763 146.32 193.893 146.03 195.133 146.03C196.153 146.03 196.943 146.23 197.503 146.63C198.083 147.03 198.373 147.53 198.373 148.13ZM195.883 148.79C195.903 148.67 195.913 148.5 195.913 148.28C195.913 147.68 195.763 147.24 195.463 146.96C195.163 146.68 194.773 146.54 194.293 146.54C193.353 146.54 192.533 147.02 191.833 147.98C191.153 148.92 190.683 150.1 190.423 151.52C190.303 152.14 190.243 152.77 190.243 153.41C190.243 154.71 190.493 155.78 190.993 156.62C191.513 157.46 192.263 157.88 193.243 157.88C194.043 157.88 194.653 157.59 195.073 157.01C195.513 156.41 195.733 155.68 195.733 154.82C195.733 154.02 195.493 153.41 195.013 152.99C194.553 152.55 193.893 152.33 193.033 152.33C192.853 152.33 192.423 152.37 191.743 152.45H191.713C191.553 152.45 191.473 152.36 191.473 152.18C191.473 152.06 191.533 151.99 191.653 151.97C193.133 151.61 194.173 151.21 194.773 150.77C195.373 150.33 195.743 149.67 195.883 148.79ZM211.959 155.69C211.979 155.67 212.009 155.66 212.049 155.66C212.109 155.66 212.159 155.7 212.199 155.78C212.259 155.84 212.269 155.89 212.229 155.93C210.909 157.49 209.779 158.27 208.839 158.27C207.939 158.27 207.489 157.72 207.489 156.62C207.489 156.18 207.529 155.75 207.609 155.33L208.029 152.93C207.229 154.61 206.279 155.94 205.179 156.92C204.099 157.9 203.049 158.39 202.029 158.39C201.409 158.39 200.929 158.21 200.589 157.85C200.249 157.47 200.079 156.9 200.079 156.14C200.079 154.76 200.509 153.28 201.369 151.7C202.249 150.1 203.329 148.76 204.609 147.68C205.909 146.58 207.129 146.03 208.269 146.03C208.649 146.03 209.019 146.1 209.379 146.24C209.759 146.36 210.089 146.55 210.369 146.81C210.769 146.47 211.059 146.13 211.239 145.79C211.279 145.75 211.319 145.73 211.359 145.73C211.419 145.73 211.479 145.75 211.539 145.79C211.599 145.81 211.619 145.84 211.599 145.88L209.829 155.33C209.789 155.53 209.769 155.78 209.769 156.08C209.769 156.6 209.919 156.86 210.219 156.86C210.599 156.86 211.179 156.47 211.959 155.69ZM203.679 156.44C204.399 156.44 205.139 156.04 205.899 155.24C206.679 154.42 207.329 153.44 207.849 152.3C208.369 151.16 208.629 150.16 208.629 149.3C208.629 148.7 208.479 148.23 208.179 147.89C207.879 147.53 207.459 147.36 206.919 147.38C206.279 147.38 205.659 147.64 205.059 148.16C204.459 148.66 203.939 149.35 203.499 150.23C203.059 151.11 202.749 152.1 202.569 153.2C202.489 153.68 202.449 154.15 202.449 154.61C202.449 155.83 202.859 156.44 203.679 156.44ZM232.492 155.6C232.552 155.6 232.602 155.64 232.642 155.72C232.682 155.78 232.672 155.84 232.612 155.9C231.912 156.72 231.272 157.32 230.692 157.7C230.132 158.08 229.572 158.27 229.012 158.27C228.572 158.27 228.242 158.15 228.022 157.91C227.822 157.65 227.722 157.26 227.722 156.74C227.722 156.54 227.762 156.16 227.842 155.6L228.352 152.81C227.672 154.59 226.882 155.97 225.982 156.95C225.102 157.91 224.162 158.39 223.162 158.39C221.882 158.39 221.242 157.59 221.242 155.99C221.242 155.61 221.292 155.1 221.392 154.46L221.692 152.87C220.992 154.63 220.192 155.99 219.292 156.95C218.412 157.91 217.492 158.39 216.532 158.39C215.272 158.39 214.642 157.6 214.642 156.02C214.642 155.46 214.692 154.93 214.792 154.43L215.782 149.09C215.842 148.79 215.872 148.55 215.872 148.37C215.872 147.83 215.702 147.56 215.362 147.56C215.162 147.56 214.922 147.66 214.642 147.86C214.362 148.04 214.022 148.33 213.622 148.73C213.582 148.77 213.552 148.79 213.532 148.79C213.472 148.79 213.422 148.76 213.382 148.7C213.342 148.62 213.342 148.55 213.382 148.49C214.082 147.69 214.692 147.1 215.212 146.72C215.732 146.34 216.262 146.15 216.802 146.15C217.682 146.15 218.122 146.68 218.122 147.74C218.122 148.08 218.072 148.53 217.972 149.09L217.072 153.86C216.972 154.5 216.922 154.98 216.922 155.3C216.922 156.34 217.242 156.86 217.882 156.86C218.402 156.86 218.952 156.51 219.532 155.81C220.132 155.09 220.702 154.04 221.242 152.66C221.782 151.28 222.232 149.63 222.592 147.71L222.772 146.72C222.832 146.36 223.312 146.18 224.212 146.18C224.812 146.18 225.112 146.25 225.112 146.39L224.962 147.02C224.922 147.18 224.872 147.4 224.812 147.68C224.752 147.94 224.692 148.26 224.632 148.64L223.672 153.92C223.572 154.52 223.522 154.97 223.522 155.27C223.522 156.33 223.862 156.86 224.542 156.86C225.082 156.86 225.642 156.49 226.222 155.75C226.822 155.01 227.392 153.94 227.932 152.54C228.472 151.12 228.922 149.46 229.282 147.56L229.432 146.72C229.492 146.36 229.972 146.18 230.872 146.18C231.452 146.18 231.742 146.25 231.742 146.39L231.592 147.11L231.292 148.58L230.062 155.33C230.022 155.51 230.002 155.74 230.002 156.02C230.002 156.6 230.182 156.89 230.542 156.89C230.742 156.89 231.002 156.79 231.322 156.59C231.642 156.37 231.992 156.06 232.372 155.66L232.492 155.6ZM246.641 155.6C246.701 155.6 246.751 155.64 246.791 155.72C246.831 155.78 246.821 155.84 246.761 155.9C246.061 156.72 245.421 157.32 244.841 157.7C244.281 158.08 243.731 158.27 243.191 158.27C242.731 158.27 242.391 158.15 242.171 157.91C241.971 157.65 241.871 157.26 241.871 156.74C241.871 156.54 241.911 156.16 241.991 155.6L242.531 152.57C241.831 154.41 241.011 155.84 240.071 156.86C239.151 157.88 238.171 158.39 237.131 158.39C236.471 158.39 235.961 158.2 235.601 157.82C235.261 157.42 235.091 156.83 235.091 156.05C235.091 155.57 235.151 155.03 235.271 154.43L236.321 149.09C236.381 148.79 236.411 148.55 236.411 148.37C236.411 147.83 236.241 147.56 235.901 147.56C235.701 147.56 235.461 147.66 235.181 147.86C234.921 148.06 234.591 148.35 234.191 148.73C234.151 148.77 234.111 148.79 234.071 148.79C234.011 148.79 233.961 148.76 233.921 148.7C233.881 148.62 233.891 148.55 233.951 148.49C234.631 147.69 235.231 147.1 235.751 146.72C236.271 146.34 236.801 146.15 237.341 146.15C238.221 146.15 238.661 146.69 238.661 147.77C238.661 148.09 238.611 148.53 238.511 149.09L237.551 153.86C237.431 154.42 237.371 154.9 237.371 155.3C237.371 156.34 237.731 156.86 238.451 156.86C239.051 156.86 239.671 156.48 240.311 155.72C240.951 154.96 241.551 153.85 242.111 152.39C242.671 150.91 243.141 149.15 243.521 147.11L243.581 146.72C243.641 146.36 244.121 146.18 245.021 146.18C245.601 146.18 245.891 146.25 245.891 146.39L245.771 147.05C245.571 147.99 245.461 148.52 245.441 148.64L244.211 155.33C244.171 155.51 244.151 155.74 244.151 156.02C244.151 156.6 244.331 156.89 244.691 156.89C245.151 156.89 245.761 156.48 246.521 155.66L246.641 155.6ZM263.971 155.6C264.031 155.6 264.081 155.64 264.121 155.72C264.161 155.78 264.161 155.84 264.121 155.9C263.421 156.72 262.781 157.32 262.201 157.7C261.621 158.08 261.061 158.27 260.521 158.27C260.081 158.27 259.751 158.15 259.531 157.91C259.331 157.65 259.231 157.26 259.231 156.74C259.231 156.54 259.271 156.16 259.351 155.6L260.431 149L255.271 158C255.251 158.08 255.151 158.12 254.971 158.12C254.811 158.12 254.721 158.08 254.701 158L252.451 149.87C252.031 152.21 251.681 153.95 251.401 155.09C251.121 156.21 250.791 157.02 250.411 157.52C250.051 158.02 249.571 158.27 248.971 158.27C248.571 158.27 248.251 158.16 248.011 157.94C247.791 157.72 247.681 157.45 247.681 157.13C247.681 156.77 247.811 156.48 248.071 156.26C248.331 156.02 248.691 155.9 249.151 155.9C249.671 155.9 250.091 155.65 250.411 155.15C250.731 154.63 251.001 153.9 251.221 152.96C251.461 152 251.751 150.56 252.091 148.64C251.791 147.7 251.351 147.23 250.771 147.23C250.391 147.23 250.031 147.4 249.691 147.74C249.671 147.76 249.641 147.77 249.601 147.77C249.521 147.77 249.451 147.74 249.391 147.68C249.351 147.62 249.361 147.57 249.421 147.53C249.801 147.09 250.221 146.76 250.681 146.54C251.141 146.32 251.601 146.21 252.061 146.21C252.581 146.21 253.041 146.35 253.441 146.63C253.841 146.91 254.121 147.34 254.281 147.92L256.171 155.21L260.971 146.87C261.091 146.65 261.211 146.51 261.331 146.45C261.451 146.37 261.671 146.33 261.991 146.33C262.651 146.33 262.951 146.49 262.891 146.81L261.541 155.33C261.501 155.69 261.481 155.92 261.481 156.02C261.481 156.6 261.661 156.89 262.021 156.89C262.241 156.89 262.511 156.79 262.831 156.59C263.151 156.37 263.491 156.06 263.851 155.66L263.971 155.6ZM70.1328 162.8C70.1728 162.72 70.2428 162.7 70.3428 162.74C70.4428 162.76 70.4728 162.81 70.4328 162.89C69.9728 164.27 69.4928 165.33 68.9928 166.07C68.5128 166.81 67.9828 167.36 67.4028 167.72C66.8228 168.08 65.9428 168.52 64.7628 169.04C63.4028 169.64 62.2828 170.25 61.4028 170.87C60.5428 171.49 59.7828 172.33 59.1228 173.39C58.4828 174.43 57.9528 175.79 57.5328 177.47C58.4728 175.71 59.4728 174.57 60.5328 174.05C61.6128 173.53 62.5528 173.27 63.3528 173.27C64.9328 173.27 66.0828 173.72 66.8028 174.62C67.5428 175.5 67.9128 176.6 67.9128 177.92C67.9128 178.44 67.8728 178.9 67.7928 179.3C67.5728 180.52 67.1128 181.59 66.4128 182.51C65.7328 183.43 64.9028 184.14 63.9228 184.64C62.9428 185.14 61.9428 185.39 60.9228 185.39C59.6628 185.39 58.6528 184.97 57.8928 184.13C57.1328 183.29 56.7528 181.97 56.7528 180.17C56.7528 179.35 56.8428 178.4 57.0228 177.32C57.5628 174.28 58.5628 171.92 60.0228 170.24C61.4828 168.54 63.1828 167.26 65.1228 166.4L65.9928 166.04C67.0128 165.62 67.8328 165.2 68.4528 164.78C69.0928 164.34 69.6528 163.68 70.1328 162.8ZM59.4828 178.43C59.3428 179.19 59.2728 179.93 59.2728 180.65C59.2728 181.95 59.5028 182.96 59.9628 183.68C60.4228 184.4 61.0528 184.76 61.8528 184.76C62.6128 184.76 63.2928 184.35 63.8928 183.53C64.4928 182.69 64.9428 181.49 65.2428 179.93C65.3828 179.17 65.4528 178.45 65.4528 177.77C65.4528 176.51 65.2228 175.54 64.7628 174.86C64.3028 174.18 63.6928 173.84 62.9328 173.84C62.0528 173.84 61.3128 174.3 60.7128 175.22C60.1128 176.14 59.7028 177.21 59.4828 178.43ZM69.5855 185.27C69.1655 185.27 68.8355 185.16 68.5955 184.94C68.3555 184.72 68.2555 184.43 68.2955 184.07C68.3155 183.73 68.4555 183.45 68.7155 183.23C68.9755 183.01 69.3555 182.9 69.8555 182.9C71.2955 182.9 72.4255 181.33 73.2455 178.19C73.6055 176.79 73.9755 175.74 74.3555 175.04C74.7555 174.34 75.2755 173.85 75.9155 173.57C76.5555 173.27 77.4555 173.12 78.6155 173.12C79.4755 173.12 80.0255 173.14 80.2655 173.18C80.5055 173.22 80.6255 173.32 80.6255 173.48C80.6255 173.52 80.6055 173.66 80.5655 173.9L79.0355 182.33C78.9755 182.63 78.9455 182.87 78.9455 183.05C78.9455 183.59 79.1255 183.86 79.4855 183.86C79.8455 183.86 80.4155 183.47 81.1955 182.69C81.2155 182.67 81.2455 182.66 81.2855 182.66C81.3655 182.66 81.4255 182.7 81.4655 182.78C81.5055 182.84 81.4955 182.9 81.4355 182.96C80.7755 183.74 80.1755 184.32 79.6355 184.7C79.0955 185.08 78.5555 185.27 78.0155 185.27C77.0955 185.27 76.6355 184.71 76.6355 183.59C76.6355 183.17 76.6755 182.75 76.7555 182.33L77.9855 175.49C78.1255 174.65 78.1955 174.19 78.1955 174.11C78.1955 173.95 78.1555 173.85 78.0755 173.81C77.9955 173.77 77.8355 173.75 77.5955 173.75C76.6555 173.75 75.9155 174.06 75.3755 174.68C74.8555 175.3 74.3955 176.36 73.9955 177.86C73.6355 179.26 73.3055 180.41 73.0055 181.31C72.7255 182.21 72.2855 183.1 71.6855 183.98C71.1055 184.84 70.4055 185.27 69.5855 185.27ZM95.4835 182.6C95.5435 182.6 95.5935 182.64 95.6335 182.72C95.6735 182.78 95.6635 182.84 95.6035 182.9C94.9035 183.72 94.2635 184.32 93.6835 184.7C93.1235 185.08 92.5735 185.27 92.0335 185.27C91.5735 185.27 91.2335 185.15 91.0135 184.91C90.8135 184.65 90.7135 184.26 90.7135 183.74C90.7135 183.54 90.7535 183.16 90.8335 182.6L91.3735 179.57C90.6735 181.41 89.8535 182.84 88.9135 183.86C87.9935 184.88 87.0135 185.39 85.9735 185.39C85.3135 185.39 84.8035 185.2 84.4435 184.82C84.1035 184.42 83.9335 183.83 83.9335 183.05C83.9335 182.57 83.9935 182.03 84.1135 181.43L85.1635 176.09C85.2235 175.79 85.2535 175.55 85.2535 175.37C85.2535 174.83 85.0835 174.56 84.7435 174.56C84.5435 174.56 84.3035 174.66 84.0235 174.86C83.7635 175.06 83.4335 175.35 83.0335 175.73C82.9935 175.77 82.9535 175.79 82.9135 175.79C82.8535 175.79 82.8035 175.76 82.7635 175.7C82.7235 175.62 82.7335 175.55 82.7935 175.49C83.4735 174.69 84.0735 174.1 84.5935 173.72C85.1135 173.34 85.6435 173.15 86.1835 173.15C87.0635 173.15 87.5035 173.69 87.5035 174.77C87.5035 175.09 87.4535 175.53 87.3535 176.09L86.3935 180.86C86.2735 181.42 86.2135 181.9 86.2135 182.3C86.2135 183.34 86.5735 183.86 87.2935 183.86C87.8935 183.86 88.5135 183.48 89.1535 182.72C89.7935 181.96 90.3935 180.85 90.9535 179.39C91.5135 177.91 91.9835 176.15 92.3635 174.11L92.4235 173.72C92.4835 173.36 92.9635 173.18 93.8635 173.18C94.4435 173.18 94.7335 173.25 94.7335 173.39L94.6135 174.05C94.4135 174.99 94.3035 175.52 94.2835 175.64L93.0535 182.33C93.0135 182.51 92.9935 182.74 92.9935 183.02C92.9935 183.6 93.1735 183.89 93.5335 183.89C93.9935 183.89 94.6035 183.48 95.3635 182.66L95.4835 182.6ZM105.464 175.31C105.464 176.01 105.174 176.67 104.594 177.29C104.034 177.89 103.294 178.33 102.374 178.61C103.194 178.67 103.814 178.91 104.234 179.33C104.654 179.73 104.864 180.26 104.864 180.92C104.864 181.74 104.604 182.49 104.084 183.17C103.564 183.83 102.884 184.36 102.044 184.76C101.204 185.14 100.324 185.33 99.4039 185.33C98.5039 185.33 97.7739 185.17 97.2139 184.85C96.6539 184.51 96.3739 184.09 96.3739 183.59C96.3739 183.25 96.4739 182.97 96.6739 182.75C96.8739 182.53 97.1539 182.42 97.5139 182.42C97.8139 182.42 98.0439 182.51 98.2039 182.69C98.3639 182.85 98.5239 183.11 98.6839 183.47C98.8839 183.85 99.1139 184.15 99.3739 184.37C99.6539 184.57 100.024 184.67 100.484 184.67C101.524 184.67 102.184 183.97 102.464 182.57C102.524 182.23 102.554 181.92 102.554 181.64C102.554 180.84 102.344 180.2 101.924 179.72C101.524 179.22 100.934 178.97 100.154 178.97C100.054 178.97 100.004 178.91 100.004 178.79C100.004 178.67 100.054 178.61 100.154 178.61C101.074 178.59 101.764 178.4 102.224 178.04C102.704 177.66 103.004 177.14 103.124 176.48C103.164 176.2 103.184 175.99 103.184 175.85C103.184 175.27 102.994 174.82 102.614 174.5C102.234 174.18 101.754 174.02 101.174 174.02C100.634 174.02 100.084 174.15 99.5239 174.41C98.9639 174.67 98.4939 175.04 98.1139 175.52C98.1139 175.54 98.0939 175.55 98.0539 175.55C97.9939 175.55 97.9339 175.53 97.8739 175.49C97.8139 175.43 97.7939 175.38 97.8139 175.34C98.3739 174.58 99.0739 174 99.9139 173.6C100.754 173.18 101.594 172.97 102.434 172.97C103.334 172.97 104.064 173.19 104.624 173.63C105.184 174.07 105.464 174.63 105.464 175.31ZM116.442 175.1C116.102 175.1 115.672 175.38 115.152 175.94C114.632 176.48 113.962 177.4 113.142 178.7C113.722 178.72 114.162 178.81 114.462 178.97C114.762 179.11 115.002 179.36 115.182 179.72C115.382 180.06 115.672 180.69 116.052 181.61C116.132 181.77 116.252 182.06 116.412 182.48C116.592 182.9 116.762 183.2 116.922 183.38C117.082 183.54 117.252 183.62 117.432 183.62C117.612 183.62 117.782 183.56 117.942 183.44C118.122 183.32 118.292 183.18 118.452 183.02C118.612 182.86 118.722 182.76 118.782 182.72C118.822 182.68 118.862 182.66 118.902 182.66C118.962 182.66 119.012 182.7 119.052 182.78C119.092 182.84 119.082 182.9 119.022 182.96C118.262 183.86 117.682 184.48 117.282 184.82C116.882 185.16 116.452 185.33 115.992 185.33C115.552 185.33 115.192 185.12 114.912 184.7C114.632 184.26 114.232 183.38 113.712 182.06C113.352 181.18 113.072 180.57 112.872 180.23C112.672 179.87 112.442 179.62 112.182 179.48C111.942 179.34 111.592 179.27 111.132 179.27L110.172 184.7C110.112 185.06 109.632 185.24 108.732 185.24C108.152 185.24 107.862 185.17 107.862 185.03L107.982 184.37C108.182 183.43 108.292 182.9 108.312 182.78L109.542 176.09C109.582 175.91 109.602 175.68 109.602 175.4C109.602 174.82 109.422 174.53 109.062 174.53C108.862 174.53 108.602 174.64 108.282 174.86C107.962 175.06 107.612 175.36 107.232 175.76L107.112 175.82C107.052 175.82 107.002 175.79 106.962 175.73C106.922 175.65 106.932 175.58 106.992 175.52C107.692 174.7 108.322 174.1 108.882 173.72C109.462 173.34 110.032 173.15 110.592 173.15C111.032 173.15 111.352 173.28 111.552 173.54C111.772 173.78 111.882 174.16 111.882 174.68C111.882 174.88 111.842 175.26 111.762 175.82L111.252 178.73L112.692 178.7C113.692 176.72 114.602 175.3 115.422 174.44C116.242 173.56 117.062 173.12 117.882 173.12C118.382 173.12 118.762 173.26 119.022 173.54C119.282 173.82 119.382 174.16 119.322 174.56C119.282 174.84 119.142 175.09 118.902 175.31C118.682 175.51 118.392 175.61 118.032 175.61C117.752 175.61 117.432 175.51 117.072 175.31C117.032 175.29 116.942 175.25 116.802 175.19C116.682 175.13 116.562 175.1 116.442 175.1ZM133.159 182.6C133.219 182.6 133.269 182.64 133.309 182.72C133.349 182.78 133.339 182.84 133.279 182.9C132.579 183.72 131.939 184.32 131.359 184.7C130.799 185.08 130.249 185.27 129.709 185.27C129.249 185.27 128.909 185.15 128.689 184.91C128.489 184.65 128.389 184.26 128.389 183.74C128.389 183.54 128.429 183.16 128.509 182.6L129.049 179.57C128.349 181.41 127.529 182.84 126.589 183.86C125.669 184.88 124.689 185.39 123.649 185.39C122.989 185.39 122.479 185.2 122.119 184.82C121.779 184.42 121.609 183.83 121.609 183.05C121.609 182.57 121.669 182.03 121.789 181.43L122.839 176.09C122.899 175.79 122.929 175.55 122.929 175.37C122.929 174.83 122.759 174.56 122.419 174.56C122.219 174.56 121.979 174.66 121.699 174.86C121.439 175.06 121.109 175.35 120.709 175.73C120.669 175.77 120.629 175.79 120.589 175.79C120.529 175.79 120.479 175.76 120.439 175.7C120.399 175.62 120.409 175.55 120.469 175.49C121.149 174.69 121.749 174.1 122.269 173.72C122.789 173.34 123.319 173.15 123.859 173.15C124.739 173.15 125.179 173.69 125.179 174.77C125.179 175.09 125.129 175.53 125.029 176.09L124.069 180.86C123.949 181.42 123.889 181.9 123.889 182.3C123.889 183.34 124.249 183.86 124.969 183.86C125.569 183.86 126.189 183.48 126.829 182.72C127.469 181.96 128.069 180.85 128.629 179.39C129.189 177.91 129.659 176.15 130.039 174.11L130.099 173.72C130.159 173.36 130.639 173.18 131.539 173.18C132.119 173.18 132.409 173.25 132.409 173.39L132.289 174.05C132.089 174.99 131.979 175.52 131.959 175.64L130.729 182.33C130.689 182.51 130.669 182.74 130.669 183.02C130.669 183.6 130.849 183.89 131.209 183.89C131.669 183.89 132.279 183.48 133.039 182.66L133.159 182.6ZM150.49 182.6C150.55 182.6 150.6 182.64 150.64 182.72C150.68 182.78 150.68 182.84 150.64 182.9C149.94 183.72 149.3 184.32 148.72 184.7C148.14 185.08 147.58 185.27 147.04 185.27C146.6 185.27 146.27 185.15 146.05 184.91C145.85 184.65 145.75 184.26 145.75 183.74C145.75 183.54 145.79 183.16 145.87 182.6L146.95 176L141.79 185C141.77 185.08 141.67 185.12 141.49 185.12C141.33 185.12 141.24 185.08 141.22 185L138.97 176.87C138.55 179.21 138.2 180.95 137.92 182.09C137.64 183.21 137.31 184.02 136.93 184.52C136.57 185.02 136.09 185.27 135.49 185.27C135.09 185.27 134.77 185.16 134.53 184.94C134.31 184.72 134.2 184.45 134.2 184.13C134.2 183.77 134.33 183.48 134.59 183.26C134.85 183.02 135.21 182.9 135.67 182.9C136.19 182.9 136.61 182.65 136.93 182.15C137.25 181.63 137.52 180.9 137.74 179.96C137.98 179 138.27 177.56 138.61 175.64C138.31 174.7 137.87 174.23 137.29 174.23C136.91 174.23 136.55 174.4 136.21 174.74C136.19 174.76 136.16 174.77 136.12 174.77C136.04 174.77 135.97 174.74 135.91 174.68C135.87 174.62 135.88 174.57 135.94 174.53C136.32 174.09 136.74 173.76 137.2 173.54C137.66 173.32 138.12 173.21 138.58 173.21C139.1 173.21 139.56 173.35 139.96 173.63C140.36 173.91 140.64 174.34 140.8 174.92L142.69 182.21L147.49 173.87C147.61 173.65 147.73 173.51 147.85 173.45C147.97 173.37 148.19 173.33 148.51 173.33C149.17 173.33 149.47 173.49 149.41 173.81L148.06 182.33C148.02 182.69 148 182.92 148 183.02C148 183.6 148.18 183.89 148.54 183.89C148.76 183.89 149.03 183.79 149.35 183.59C149.67 183.37 150.01 183.06 150.37 182.66L150.49 182.6ZM166.855 173.21C167.875 173.21 168.635 173.48 169.135 174.02C169.655 174.56 169.915 175.35 169.915 176.39C169.915 176.83 169.895 177.17 169.855 177.41C169.655 178.75 169.185 180.01 168.445 181.19C167.725 182.35 166.845 183.28 165.805 183.98C164.785 184.68 163.735 185.03 162.655 185.03C162.255 185.03 161.795 185.01 161.275 184.97L160.315 190.34C160.255 190.68 160.225 190.96 160.225 191.18C160.225 191.5 160.295 191.73 160.435 191.87C160.575 192.01 160.815 192.08 161.155 192.08C161.255 192.08 161.485 192.06 161.845 192.02C161.925 192.02 161.975 192.07 161.995 192.17C162.015 192.29 161.985 192.36 161.905 192.38L156.385 193.25C156.325 193.27 156.285 193.22 156.265 193.1C156.225 192.98 156.245 192.91 156.325 192.89C156.745 192.79 157.055 192.67 157.255 192.53C157.455 192.41 157.605 192.21 157.705 191.93C157.805 191.65 157.905 191.19 158.005 190.55L160.555 176.24C160.555 176.24 160.255 176.45 159.655 176.87L159.115 177.26L159.055 177.29C158.975 177.29 158.915 177.24 158.875 177.14C158.835 177.04 158.845 176.97 158.905 176.93C159.425 176.49 160.015 176.04 160.675 175.58L161.065 173.42C161.065 173.38 161.265 173.23 161.665 172.97C162.085 172.69 162.455 172.4 162.775 172.1C163.095 171.8 163.295 171.47 163.375 171.11L163.495 171.05C163.555 171.05 163.605 171.07 163.645 171.11C163.705 171.13 163.725 171.16 163.705 171.2L163.195 174.11C164.495 173.51 165.715 173.21 166.855 173.21ZM167.485 178.4C167.525 178 167.545 177.7 167.545 177.5C167.545 175.54 166.715 174.56 165.055 174.56C164.375 174.56 163.705 174.69 163.045 174.95L161.485 183.68C162.145 183.98 162.875 184.13 163.675 184.13C164.735 184.13 165.575 183.62 166.195 182.6C166.835 181.56 167.265 180.16 167.485 178.4ZM182.853 182.69C182.873 182.67 182.903 182.66 182.943 182.66C183.003 182.66 183.053 182.7 183.093 182.78C183.153 182.84 183.163 182.89 183.123 182.93C181.803 184.49 180.673 185.27 179.733 185.27C178.833 185.27 178.383 184.72 178.383 183.62C178.383 183.18 178.423 182.75 178.503 182.33L178.923 179.93C178.123 181.61 177.173 182.94 176.073 183.92C174.993 184.9 173.943 185.39 172.923 185.39C172.303 185.39 171.823 185.21 171.483 184.85C171.143 184.47 170.973 183.9 170.973 183.14C170.973 181.76 171.403 180.28 172.263 178.7C173.143 177.1 174.223 175.76 175.503 174.68C176.803 173.58 178.023 173.03 179.163 173.03C179.543 173.03 179.913 173.1 180.273 173.24C180.653 173.36 180.983 173.55 181.263 173.81C181.663 173.47 181.953 173.13 182.133 172.79C182.173 172.75 182.213 172.73 182.253 172.73C182.313 172.73 182.373 172.75 182.433 172.79C182.493 172.81 182.513 172.84 182.493 172.88L180.723 182.33C180.683 182.53 180.663 182.78 180.663 183.08C180.663 183.6 180.813 183.86 181.113 183.86C181.493 183.86 182.073 183.47 182.853 182.69ZM174.573 183.44C175.293 183.44 176.033 183.04 176.793 182.24C177.573 181.42 178.223 180.44 178.743 179.3C179.263 178.16 179.523 177.16 179.523 176.3C179.523 175.7 179.373 175.23 179.073 174.89C178.773 174.53 178.353 174.36 177.813 174.38C177.173 174.38 176.553 174.64 175.953 175.16C175.353 175.66 174.833 176.35 174.393 177.23C173.953 178.11 173.643 179.1 173.463 180.2C173.383 180.68 173.343 181.15 173.343 181.61C173.343 182.83 173.753 183.44 174.573 183.44ZM187.545 163.25C193.405 163.25 196.335 166.18 196.335 172.04C196.335 173.48 196.175 175.03 195.855 176.69C195.315 179.71 194.465 181.92 193.305 183.32C192.145 184.72 190.685 185.42 188.925 185.42C187.505 185.42 186.435 184.96 185.715 184.04C185.015 183.1 184.665 181.92 184.665 180.5C184.665 179.94 184.705 179.43 184.785 178.97C184.965 177.95 185.325 177 185.865 176.12C186.405 175.24 187.085 174.53 187.905 173.99C188.745 173.43 189.685 173.15 190.725 173.15C191.425 173.15 192.055 173.29 192.615 173.57C193.195 173.85 193.665 174.26 194.025 174.8C194.165 173.84 194.235 172.91 194.235 172.01C194.235 170.07 193.915 168.47 193.275 167.21C192.655 165.95 191.835 165.04 190.815 164.48C189.815 163.9 188.725 163.61 187.545 163.61C187.485 163.61 187.455 163.55 187.455 163.43C187.455 163.31 187.485 163.25 187.545 163.25ZM193.005 179.81C193.085 179.31 193.125 178.77 193.125 178.19C193.125 176.85 192.855 175.78 192.315 174.98C191.795 174.18 191.125 173.78 190.305 173.78C189.545 173.78 188.895 174.13 188.355 174.83C187.835 175.51 187.475 176.44 187.275 177.62C187.175 178.32 187.125 178.96 187.125 179.54C187.125 181 187.345 182.24 187.785 183.26C188.245 184.26 188.865 184.76 189.645 184.76C190.425 184.76 191.125 184.3 191.745 183.38C192.365 182.46 192.785 181.27 193.005 179.81ZM201.189 185.42C199.909 185.42 198.919 185 198.219 184.16C197.539 183.32 197.199 182.23 197.199 180.89C197.199 180.33 197.259 179.77 197.379 179.21C197.599 178.03 198.029 176.97 198.669 176.03C199.309 175.09 200.079 174.36 200.979 173.84C201.899 173.3 202.869 173.03 203.889 173.03C205.209 173.03 206.219 173.45 206.919 174.29C207.619 175.11 207.969 176.19 207.969 177.53C207.969 178.07 207.909 178.63 207.789 179.21C207.529 180.49 207.059 181.6 206.379 182.54C205.699 183.48 204.899 184.2 203.979 184.7C203.059 185.18 202.129 185.42 201.189 185.42ZM202.209 184.67C202.909 184.67 203.529 184.3 204.069 183.56C204.609 182.82 204.999 181.81 205.239 180.53C205.379 179.85 205.449 179.13 205.449 178.37C205.449 177.05 205.219 175.95 204.759 175.07C204.319 174.19 203.709 173.75 202.929 173.75C202.249 173.75 201.639 174.11 201.099 174.83C200.559 175.55 200.169 176.58 199.929 177.92C199.789 178.62 199.719 179.34 199.719 180.08C199.719 181.4 199.939 182.5 200.379 183.38C200.819 184.24 201.429 184.67 202.209 184.67ZM213.407 185.39C212.047 185.39 211.037 184.94 210.377 184.04C209.737 183.12 209.417 181.98 209.417 180.62C209.417 180.14 209.467 179.58 209.567 178.94C209.787 177.78 210.247 176.75 210.947 175.85C211.647 174.95 212.467 174.26 213.407 173.78C214.347 173.28 215.267 173.03 216.167 173.03C216.907 173.03 217.547 173.18 218.087 173.48C218.647 173.78 218.927 174.22 218.927 174.8C218.927 175.22 218.807 175.56 218.567 175.82C218.347 176.06 218.017 176.18 217.577 176.18C217.157 176.18 216.847 176.08 216.647 175.88C216.447 175.66 216.297 175.35 216.197 174.95C216.037 174.19 215.627 173.81 214.967 173.81C214.247 173.81 213.627 174.19 213.107 174.95C212.607 175.71 212.257 176.7 212.057 177.92C211.937 178.58 211.877 179.22 211.877 179.84C211.877 181.12 212.137 182.15 212.657 182.93C213.197 183.69 213.997 184.07 215.057 184.07C215.517 184.07 215.997 183.97 216.497 183.77C217.017 183.55 217.477 183.29 217.877 182.99H217.907C217.967 182.99 218.027 183.02 218.087 183.08C218.147 183.14 218.157 183.2 218.117 183.26C217.357 183.98 216.567 184.52 215.747 184.88C214.947 185.22 214.167 185.39 213.407 185.39ZM238.687 182.69C238.727 182.65 238.757 182.63 238.777 182.63C238.837 182.63 238.887 182.67 238.927 182.75C238.967 182.81 238.967 182.87 238.927 182.93C238.227 183.73 237.617 184.32 237.097 184.7C236.577 185.08 236.047 185.27 235.507 185.27C234.627 185.27 234.187 184.74 234.187 183.68C234.187 183.34 234.237 182.89 234.337 182.33L235.237 177.56C235.337 176.92 235.387 176.44 235.387 176.12C235.387 175.08 235.067 174.56 234.427 174.56C233.907 174.56 233.347 174.92 232.747 175.64C232.167 176.34 231.607 177.38 231.067 178.76C230.527 180.14 230.077 181.79 229.717 183.71L229.537 184.7C229.477 185.06 228.997 185.24 228.097 185.24C227.497 185.24 227.197 185.17 227.197 185.03L227.347 184.4C227.387 184.24 227.437 184.03 227.497 183.77C227.557 183.49 227.617 183.16 227.677 182.78L228.637 177.5C228.737 176.9 228.787 176.45 228.787 176.15C228.787 175.09 228.447 174.56 227.767 174.56C227.227 174.56 226.657 174.93 226.057 175.67C225.477 176.41 224.917 177.49 224.377 178.91C223.837 180.31 223.387 181.96 223.027 183.86L222.877 184.7C222.817 185.06 222.337 185.24 221.437 185.24C220.857 185.24 220.567 185.17 220.567 185.03L220.717 184.31L221.017 182.84L222.247 176.09C222.287 175.91 222.307 175.68 222.307 175.4C222.307 174.82 222.127 174.53 221.767 174.53C221.567 174.53 221.307 174.64 220.987 174.86C220.667 175.06 220.317 175.36 219.937 175.76L219.817 175.82C219.757 175.82 219.707 175.79 219.667 175.73C219.627 175.65 219.637 175.58 219.697 175.52C220.397 174.7 221.027 174.1 221.587 173.72C222.167 173.34 222.737 173.15 223.297 173.15C223.737 173.15 224.057 173.28 224.257 173.54C224.477 173.78 224.587 174.16 224.587 174.68C224.587 174.88 224.547 175.26 224.467 175.82L223.957 178.61C224.637 176.83 225.417 175.46 226.297 174.5C227.197 173.52 228.147 173.03 229.147 173.03C230.427 173.03 231.067 173.83 231.067 175.43C231.067 175.81 231.017 176.32 230.917 176.96L230.617 178.55C231.317 176.79 232.107 175.43 232.987 174.47C233.887 173.51 234.817 173.03 235.777 173.03C237.037 173.03 237.667 173.82 237.667 175.4C237.667 175.96 237.617 176.49 237.517 176.99L236.527 182.33C236.467 182.63 236.437 182.87 236.437 183.05C236.437 183.59 236.607 183.86 236.947 183.86C237.147 183.86 237.387 183.77 237.667 183.59C237.947 183.39 238.287 183.09 238.687 182.69ZM247.766 178.55C248.486 178.55 249.046 178.73 249.446 179.09C249.866 179.45 250.076 179.96 250.076 180.62C250.076 181.36 249.816 182.1 249.296 182.84C248.796 183.58 248.096 184.19 247.196 184.67C246.316 185.15 245.346 185.39 244.286 185.39C243.306 185.39 242.586 185.22 242.126 184.88C241.666 184.52 241.436 183.93 241.436 183.11C241.436 182.73 241.476 182.35 241.556 181.97L242.666 176.09C242.726 175.81 242.756 175.57 242.756 175.37C242.756 174.81 242.566 174.53 242.186 174.53C241.766 174.53 241.166 174.95 240.386 175.79C240.366 175.81 240.336 175.82 240.296 175.82C240.216 175.82 240.156 175.79 240.116 175.73C240.076 175.65 240.086 175.59 240.146 175.55C240.846 174.71 241.476 174.1 242.036 173.72C242.596 173.34 243.156 173.15 243.716 173.15C244.156 173.15 244.476 173.28 244.676 173.54C244.896 173.78 245.006 174.16 245.006 174.68C245.006 174.88 244.966 175.26 244.886 175.82L244.106 180.2C244.506 179.68 245.026 179.28 245.666 179C246.306 178.7 247.006 178.55 247.766 178.55ZM247.646 181.34C247.646 180.76 247.506 180.32 247.226 180.02C246.966 179.7 246.626 179.54 246.206 179.54C245.686 179.54 245.196 179.77 244.736 180.23C244.276 180.67 243.956 181.29 243.776 182.09C243.716 182.45 243.686 182.77 243.686 183.05C243.686 183.65 243.816 184.11 244.076 184.43C244.336 184.73 244.696 184.88 245.156 184.88C245.636 184.88 246.066 184.69 246.446 184.31C246.826 183.93 247.116 183.47 247.316 182.93C247.536 182.37 247.646 181.84 247.646 181.34ZM88.6539 202.1C88.3139 202.1 87.8839 202.38 87.3639 202.94C86.8439 203.48 86.1739 204.4 85.3539 205.7C85.9339 205.72 86.3739 205.81 86.6739 205.97C86.9739 206.11 87.2139 206.36 87.3939 206.72C87.5939 207.06 87.8839 207.69 88.2639 208.61C88.3439 208.77 88.4639 209.06 88.6239 209.48C88.8039 209.9 88.9739 210.2 89.1339 210.38C89.2939 210.54 89.4639 210.62 89.6439 210.62C89.8239 210.62 89.9939 210.56 90.1539 210.44C90.3339 210.32 90.5039 210.18 90.6639 210.02C90.8239 209.86 90.9339 209.76 90.9939 209.72C91.0339 209.68 91.0739 209.66 91.1139 209.66C91.1739 209.66 91.2239 209.7 91.2639 209.78C91.3039 209.84 91.2939 209.9 91.2339 209.96C90.4739 210.86 89.8939 211.48 89.4939 211.82C89.0939 212.16 88.6639 212.33 88.2039 212.33C87.7639 212.33 87.4039 212.12 87.1239 211.7C86.8439 211.26 86.4439 210.38 85.9239 209.06C85.5639 208.18 85.2839 207.57 85.0839 207.23C84.8839 206.87 84.6539 206.62 84.3939 206.48C84.1539 206.34 83.8039 206.27 83.3439 206.27L82.3839 211.7C82.3239 212.06 81.8439 212.24 80.9439 212.24C80.3639 212.24 80.0739 212.17 80.0739 212.03L80.1939 211.37C80.3939 210.43 80.5039 209.9 80.5239 209.78L81.7539 203.09C81.7939 202.91 81.8139 202.68 81.8139 202.4C81.8139 201.82 81.6339 201.53 81.2739 201.53C81.0739 201.53 80.8139 201.64 80.4939 201.86C80.1739 202.06 79.8239 202.36 79.4439 202.76L79.3239 202.82C79.2639 202.82 79.2139 202.79 79.1739 202.73C79.1339 202.65 79.1439 202.58 79.2039 202.52C79.9039 201.7 80.5339 201.1 81.0939 200.72C81.6739 200.34 82.2439 200.15 82.8039 200.15C83.2439 200.15 83.5639 200.28 83.7639 200.54C83.9839 200.78 84.0939 201.16 84.0939 201.68C84.0939 201.88 84.0539 202.26 83.9739 202.82L83.4639 205.73L84.9039 205.7C85.9039 203.72 86.8139 202.3 87.6339 201.44C88.4539 200.56 89.2739 200.12 90.0939 200.12C90.5939 200.12 90.9739 200.26 91.2339 200.54C91.4939 200.82 91.5939 201.16 91.5339 201.56C91.4939 201.84 91.3539 202.09 91.1139 202.31C90.8939 202.51 90.6039 202.61 90.2439 202.61C89.9639 202.61 89.6439 202.51 89.2839 202.31C89.2439 202.29 89.1539 202.25 89.0139 202.19C88.8939 202.13 88.7739 202.1 88.6539 202.1ZM104.205 209.69C104.225 209.67 104.255 209.66 104.295 209.66C104.355 209.66 104.405 209.7 104.445 209.78C104.505 209.84 104.515 209.89 104.475 209.93C103.155 211.49 102.025 212.27 101.085 212.27C100.185 212.27 99.7354 211.72 99.7354 210.62C99.7354 210.18 99.7754 209.75 99.8554 209.33L100.275 206.93C99.4754 208.61 98.5254 209.94 97.4254 210.92C96.3454 211.9 95.2954 212.39 94.2754 212.39C93.6554 212.39 93.1754 212.21 92.8354 211.85C92.4954 211.47 92.3254 210.9 92.3254 210.14C92.3254 208.76 92.7554 207.28 93.6154 205.7C94.4954 204.1 95.5754 202.76 96.8554 201.68C98.1554 200.58 99.3754 200.03 100.515 200.03C100.895 200.03 101.265 200.1 101.625 200.24C102.005 200.36 102.335 200.55 102.615 200.81C103.015 200.47 103.305 200.13 103.485 199.79C103.525 199.75 103.565 199.73 103.605 199.73C103.665 199.73 103.725 199.75 103.785 199.79C103.845 199.81 103.865 199.84 103.845 199.88L102.075 209.33C102.035 209.53 102.015 209.78 102.015 210.08C102.015 210.6 102.165 210.86 102.465 210.86C102.845 210.86 103.425 210.47 104.205 209.69ZM95.9254 210.44C96.6454 210.44 97.3854 210.04 98.1454 209.24C98.9254 208.42 99.5754 207.44 100.095 206.3C100.615 205.16 100.875 204.16 100.875 203.3C100.875 202.7 100.725 202.23 100.425 201.89C100.125 201.53 99.7054 201.36 99.1654 201.38C98.5254 201.38 97.9054 201.64 97.3054 202.16C96.7054 202.66 96.1854 203.35 95.7454 204.23C95.3054 205.11 94.9954 206.1 94.8154 207.2C94.7354 207.68 94.6954 208.15 94.6954 208.61C94.6954 209.83 95.1054 210.44 95.9254 210.44ZM126.178 200.03C126.798 200.03 127.338 200.19 127.798 200.51C128.278 200.81 128.518 201.25 128.518 201.83C128.518 202.21 128.398 202.52 128.158 202.76C127.938 203 127.618 203.12 127.198 203.12C126.818 203.12 126.548 203.02 126.388 202.82C126.228 202.62 126.098 202.33 125.998 201.95C125.898 201.59 125.778 201.32 125.638 201.14C125.498 200.94 125.278 200.84 124.978 200.84C124.378 200.84 123.858 201.21 123.418 201.95C122.998 202.69 122.688 203.68 122.488 204.92C122.368 205.64 122.308 206.32 122.308 206.96C122.308 208.24 122.558 209.25 123.058 209.99C123.578 210.71 124.338 211.07 125.338 211.07C125.678 211.07 126.038 210.98 126.418 210.8C126.798 210.6 127.128 210.36 127.408 210.08H127.438C127.498 210.08 127.558 210.11 127.618 210.17C127.678 210.23 127.688 210.29 127.648 210.35C126.368 211.71 125.048 212.39 123.688 212.39C122.488 212.39 121.588 211.94 120.988 211.04C120.408 210.14 120.118 209.01 120.118 207.65C120.118 207.39 120.138 207.02 120.178 206.54H117.748L116.848 211.7C116.788 212.06 116.318 212.24 115.438 212.24C114.878 212.24 114.598 212.17 114.598 212.03L114.748 211.31C114.928 210.41 115.028 209.9 115.048 209.78L115.618 206.54H113.368C113.148 207.64 112.728 208.64 112.108 209.54C111.488 210.42 110.758 211.12 109.918 211.64C109.098 212.14 108.288 212.39 107.488 212.39C106.848 212.39 106.288 212.24 105.808 211.94C105.348 211.62 105.118 211.17 105.118 210.59C105.118 210.21 105.238 209.9 105.478 209.66C105.718 209.42 106.048 209.3 106.468 209.3C106.848 209.3 107.108 209.4 107.248 209.6C107.408 209.8 107.548 210.09 107.668 210.47C107.748 210.83 107.858 211.11 107.998 211.31C108.138 211.49 108.368 211.58 108.688 211.58C109.288 211.58 109.798 211.21 110.218 210.47C110.638 209.73 110.958 208.74 111.178 207.5C111.298 206.78 111.358 206.11 111.358 205.49C111.358 204.21 111.098 203.2 110.578 202.46C110.078 201.72 109.328 201.35 108.328 201.35C107.968 201.35 107.608 201.45 107.248 201.65C106.888 201.83 106.558 202.06 106.258 202.34H106.198C106.138 202.34 106.078 202.31 106.018 202.25C105.958 202.19 105.948 202.13 105.988 202.07C106.628 201.39 107.288 200.88 107.968 200.54C108.648 200.2 109.308 200.03 109.948 200.03C111.168 200.03 112.068 200.48 112.648 201.38C113.228 202.28 113.518 203.4 113.518 204.74C113.518 204.98 113.498 205.36 113.458 205.88H115.738L116.668 200.72C116.728 200.36 117.198 200.18 118.078 200.18C118.638 200.18 118.918 200.25 118.918 200.39L118.768 201.08C118.608 201.66 118.488 202.22 118.408 202.76L117.868 205.88H120.268C120.488 204.78 120.908 203.79 121.528 202.91C122.148 202.01 122.868 201.31 123.688 200.81C124.528 200.29 125.358 200.03 126.178 200.03ZM132.423 190.25C138.283 190.25 141.213 193.18 141.213 199.04C141.213 200.48 141.053 202.03 140.733 203.69C140.193 206.71 139.343 208.92 138.183 210.32C137.023 211.72 135.563 212.42 133.803 212.42C132.383 212.42 131.313 211.96 130.593 211.04C129.893 210.1 129.543 208.92 129.543 207.5C129.543 206.94 129.583 206.43 129.663 205.97C129.843 204.95 130.203 204 130.743 203.12C131.283 202.24 131.963 201.53 132.783 200.99C133.623 200.43 134.563 200.15 135.603 200.15C136.303 200.15 136.933 200.29 137.493 200.57C138.073 200.85 138.543 201.26 138.903 201.8C139.043 200.84 139.113 199.91 139.113 199.01C139.113 197.07 138.793 195.47 138.153 194.21C137.533 192.95 136.713 192.04 135.693 191.48C134.693 190.9 133.603 190.61 132.423 190.61C132.363 190.61 132.333 190.55 132.333 190.43C132.333 190.31 132.363 190.25 132.423 190.25ZM137.883 206.81C137.963 206.31 138.003 205.77 138.003 205.19C138.003 203.85 137.733 202.78 137.193 201.98C136.673 201.18 136.003 200.78 135.183 200.78C134.423 200.78 133.773 201.13 133.233 201.83C132.713 202.51 132.353 203.44 132.153 204.62C132.053 205.32 132.003 205.96 132.003 206.54C132.003 208 132.223 209.24 132.663 210.26C133.123 211.26 133.743 211.76 134.523 211.76C135.303 211.76 136.003 211.3 136.623 210.38C137.243 209.46 137.663 208.27 137.883 206.81ZM146.066 212.42C144.786 212.42 143.796 212 143.096 211.16C142.416 210.32 142.076 209.23 142.076 207.89C142.076 207.33 142.136 206.77 142.256 206.21C142.476 205.03 142.906 203.97 143.546 203.03C144.186 202.09 144.956 201.36 145.856 200.84C146.776 200.3 147.746 200.03 148.766 200.03C150.086 200.03 151.096 200.45 151.796 201.29C152.496 202.11 152.846 203.19 152.846 204.53C152.846 205.07 152.786 205.63 152.666 206.21C152.406 207.49 151.936 208.6 151.256 209.54C150.576 210.48 149.776 211.2 148.856 211.7C147.936 212.18 147.006 212.42 146.066 212.42ZM147.086 211.67C147.786 211.67 148.406 211.3 148.946 210.56C149.486 209.82 149.876 208.81 150.116 207.53C150.256 206.85 150.326 206.13 150.326 205.37C150.326 204.05 150.096 202.95 149.636 202.07C149.196 201.19 148.586 200.75 147.806 200.75C147.126 200.75 146.516 201.11 145.976 201.83C145.436 202.55 145.046 203.58 144.806 204.92C144.666 205.62 144.596 206.34 144.596 207.08C144.596 208.4 144.816 209.5 145.256 210.38C145.696 211.24 146.306 211.67 147.086 211.67ZM156.965 212.42C156.205 212.42 155.545 212.23 154.985 211.85C154.425 211.45 154.145 210.92 154.145 210.26C154.145 210.08 154.155 209.95 154.175 209.87C154.295 209.17 154.595 208.59 155.075 208.13C155.555 207.67 156.265 207.12 157.205 206.48C158.185 205.82 158.915 205.26 159.395 204.8C159.875 204.32 160.175 203.74 160.295 203.06C160.315 202.98 160.325 202.86 160.325 202.7C160.325 202.28 160.185 201.92 159.905 201.62C159.625 201.32 159.245 201.17 158.765 201.17C157.685 201.17 156.585 201.8 155.465 203.06C155.465 203.08 155.445 203.09 155.405 203.09C155.345 203.09 155.285 203.06 155.225 203C155.165 202.94 155.155 202.89 155.195 202.85C156.695 200.97 158.435 200.03 160.415 200.03C161.075 200.03 161.645 200.17 162.125 200.45C162.625 200.71 162.875 201.14 162.875 201.74C162.875 201.9 162.865 202.02 162.845 202.1C162.745 202.72 162.455 203.26 161.975 203.72C161.515 204.18 160.855 204.7 159.995 205.28C158.995 205.98 158.215 206.62 157.655 207.2C157.115 207.76 156.775 208.45 156.635 209.27C156.615 209.35 156.605 209.46 156.605 209.6C156.605 210.1 156.795 210.52 157.175 210.86C157.555 211.2 158.055 211.37 158.675 211.37C159.575 211.37 160.615 210.83 161.795 209.75C161.815 209.73 161.845 209.72 161.885 209.72C161.945 209.72 161.995 209.75 162.035 209.81C162.095 209.85 162.105 209.9 162.065 209.96C161.405 210.76 160.615 211.37 159.695 211.79C158.775 212.21 157.865 212.42 156.965 212.42ZM168.215 212.42C166.935 212.42 165.945 212 165.245 211.16C164.565 210.32 164.225 209.23 164.225 207.89C164.225 207.33 164.285 206.77 164.405 206.21C164.625 205.03 165.055 203.97 165.695 203.03C166.335 202.09 167.105 201.36 168.005 200.84C168.925 200.3 169.895 200.03 170.915 200.03C172.235 200.03 173.245 200.45 173.945 201.29C174.645 202.11 174.995 203.19 174.995 204.53C174.995 205.07 174.935 205.63 174.815 206.21C174.555 207.49 174.085 208.6 173.405 209.54C172.725 210.48 171.925 211.2 171.005 211.7C170.085 212.18 169.155 212.42 168.215 212.42ZM169.235 211.67C169.935 211.67 170.555 211.3 171.095 210.56C171.635 209.82 172.025 208.81 172.265 207.53C172.405 206.85 172.475 206.13 172.475 205.37C172.475 204.05 172.245 202.95 171.785 202.07C171.345 201.19 170.735 200.75 169.955 200.75C169.275 200.75 168.665 201.11 168.125 201.83C167.585 202.55 167.195 203.58 166.955 204.92C166.815 205.62 166.745 206.34 166.745 207.08C166.745 208.4 166.965 209.5 167.405 210.38C167.845 211.24 168.455 211.67 169.235 211.67ZM186.534 190.25C192.394 190.25 195.324 193.18 195.324 199.04C195.324 200.48 195.164 202.03 194.844 203.69C194.304 206.71 193.454 208.92 192.294 210.32C191.134 211.72 189.674 212.42 187.914 212.42C186.494 212.42 185.424 211.96 184.704 211.04C184.004 210.1 183.654 208.92 183.654 207.5C183.654 206.94 183.694 206.43 183.774 205.97C183.954 204.95 184.314 204 184.854 203.12C185.394 202.24 186.074 201.53 186.894 200.99C187.734 200.43 188.674 200.15 189.714 200.15C190.414 200.15 191.044 200.29 191.604 200.57C192.184 200.85 192.654 201.26 193.014 201.8C193.154 200.84 193.224 199.91 193.224 199.01C193.224 197.07 192.904 195.47 192.264 194.21C191.644 192.95 190.824 192.04 189.804 191.48C188.804 190.9 187.714 190.61 186.534 190.61C186.474 190.61 186.444 190.55 186.444 190.43C186.444 190.31 186.474 190.25 186.534 190.25ZM191.994 206.81C192.074 206.31 192.114 205.77 192.114 205.19C192.114 203.85 191.844 202.78 191.304 201.98C190.784 201.18 190.114 200.78 189.294 200.78C188.534 200.78 187.884 201.13 187.344 201.83C186.824 202.51 186.464 203.44 186.264 204.62C186.164 205.32 186.114 205.96 186.114 206.54C186.114 208 186.334 209.24 186.774 210.26C187.234 211.26 187.854 211.76 188.634 211.76C189.414 211.76 190.114 211.3 190.734 210.38C191.354 209.46 191.774 208.27 191.994 206.81ZM208.938 209.63C208.958 209.61 208.988 209.6 209.028 209.6C209.108 209.6 209.168 209.64 209.208 209.72C209.248 209.78 209.238 209.84 209.178 209.9C208.478 210.72 207.838 211.32 207.258 211.7C206.698 212.08 206.138 212.27 205.578 212.27C205.138 212.27 204.808 212.15 204.588 211.91C204.388 211.65 204.288 211.26 204.288 210.74C204.288 210.56 204.328 210.17 204.408 209.57L204.948 206.54H200.238L199.308 211.7C199.248 212.06 198.768 212.24 197.868 212.24C197.288 212.24 196.998 212.17 196.998 212.03L197.118 211.37C197.318 210.43 197.428 209.9 197.448 209.78L198.678 203.09C198.718 202.91 198.738 202.68 198.738 202.4C198.738 201.82 198.558 201.53 198.198 201.53C197.998 201.53 197.738 201.64 197.418 201.86C197.098 202.06 196.748 202.36 196.368 202.76L196.248 202.82C196.188 202.82 196.138 202.79 196.098 202.73C196.058 202.65 196.068 202.58 196.128 202.52C196.828 201.7 197.458 201.1 198.018 200.72C198.598 200.34 199.168 200.15 199.728 200.15C200.168 200.15 200.488 200.28 200.688 200.54C200.908 200.78 201.018 201.16 201.018 201.68C201.018 201.88 200.978 202.26 200.898 202.82L200.358 205.88H205.068L205.998 200.72C206.058 200.36 206.538 200.18 207.438 200.18C208.018 200.18 208.308 200.25 208.308 200.39L208.188 201.02C207.988 201.96 207.878 202.49 207.858 202.61L206.628 209.33C206.588 209.51 206.568 209.74 206.568 210.02C206.568 210.6 206.748 210.89 207.108 210.89C207.548 210.89 208.158 210.47 208.938 209.63ZM221.615 209.6C221.675 209.6 221.725 209.64 221.765 209.72C221.805 209.78 221.795 209.84 221.735 209.9C221.035 210.72 220.395 211.32 219.815 211.7C219.255 212.08 218.695 212.27 218.135 212.27C217.275 212.27 216.845 211.77 216.845 210.77C216.845 210.39 216.885 210 216.965 209.6L217.565 206.3C216.905 206.36 216.375 206.53 215.975 206.81C215.575 207.07 215.245 207.41 214.985 207.83C214.725 208.25 214.415 208.86 214.055 209.66C213.735 210.36 213.465 210.88 213.245 211.22C213.025 211.56 212.725 211.82 212.345 212C211.965 212.18 211.445 212.27 210.785 212.27C210.365 212.27 209.805 212.19 209.105 212.03C209.065 212.03 209.045 212 209.045 211.94C209.045 211.88 209.065 211.83 209.105 211.79C209.125 211.73 209.155 211.71 209.195 211.73C209.275 211.75 209.395 211.76 209.555 211.76C210.075 211.76 210.485 211.55 210.785 211.13C211.085 210.71 211.435 210.07 211.835 209.21C212.635 207.51 213.915 206.54 215.675 206.3C214.455 206.18 213.545 205.89 212.945 205.43C212.345 204.95 212.045 204.36 212.045 203.66C212.045 202.6 212.615 201.75 213.755 201.11C214.895 200.45 216.345 200.12 218.105 200.12C218.985 200.12 219.605 200.14 219.965 200.18C220.325 200.2 220.555 200.25 220.655 200.33C220.775 200.41 220.815 200.55 220.775 200.75L219.185 209.33C219.145 209.51 219.125 209.74 219.125 210.02C219.125 210.6 219.305 210.89 219.665 210.89C219.865 210.89 220.125 210.79 220.445 210.59C220.765 210.37 221.115 210.06 221.495 209.66L221.615 209.6ZM218.255 202.64C218.415 201.78 218.495 201.25 218.495 201.05C218.495 200.85 218.455 200.73 218.375 200.69C218.295 200.63 218.155 200.6 217.955 200.6C216.755 200.6 215.845 200.86 215.225 201.38C214.605 201.88 214.295 202.57 214.295 203.45C214.295 204.15 214.525 204.74 214.985 205.22C215.465 205.7 216.155 205.94 217.055 205.94C217.315 205.94 217.515 205.93 217.655 205.91L218.255 202.64ZM224.583 212.27C224.103 212.27 223.713 212.13 223.413 211.85C223.133 211.57 222.993 211.19 222.993 210.71C222.993 210.25 223.133 209.89 223.413 209.63C223.713 209.35 224.103 209.21 224.583 209.21C225.063 209.21 225.433 209.35 225.693 209.63C225.973 209.89 226.113 210.25 226.113 210.71C226.113 211.21 225.973 211.6 225.693 211.88C225.433 212.14 225.063 212.27 224.583 212.27Z" fill="#FDF9EE"/>
<path d="M145.645 64.1762C147.39 64.1762 148.779 64.7316 149.81 65.8425C150.842 66.874 151.358 68.3022 151.358 70.1272C151.358 72.1109 150.723 73.6582 149.453 74.769C148.263 75.8799 146.597 76.4353 144.454 76.4353C141.836 76.4353 139.773 75.4435 138.265 73.4598C136.758 71.3968 136.004 68.4609 136.004 64.6522C136.004 61.161 136.758 57.9474 138.265 55.0115C139.852 52.0757 142.153 49.1398 145.169 46.204C145.248 46.1246 145.367 46.085 145.526 46.085C145.764 46.085 145.962 46.204 146.121 46.442C146.279 46.6801 146.279 46.8784 146.121 47.0371C142.233 51.0045 140.289 55.686 140.289 61.0816C140.289 63.3033 140.685 64.93 141.479 65.9615C142.193 64.7713 143.582 64.1762 145.645 64.1762ZM165.283 64.1762C167.029 64.1762 168.417 64.7316 169.449 65.8425C170.48 66.874 170.996 68.3022 170.996 70.1272C170.996 72.1109 170.361 73.6582 169.092 74.769C167.902 75.8799 166.235 76.4353 164.093 76.4353C161.474 76.4353 159.411 75.4435 157.904 73.4598C156.396 71.3968 155.642 68.4609 155.642 64.6522C155.642 61.161 156.396 57.9474 157.904 55.0115C159.491 52.0757 161.792 49.1398 164.807 46.204C164.886 46.1246 165.005 46.085 165.164 46.085C165.402 46.085 165.6 46.204 165.759 46.442C165.918 46.6801 165.918 46.8784 165.759 47.0371C161.871 51.0045 159.927 55.686 159.927 61.0816C159.927 63.3033 160.324 64.93 161.117 65.9615C161.831 64.7713 163.22 64.1762 165.283 64.1762Z" fill="#FDF9EE"/>
</svg>
