<svg width="24" height="21" viewBox="0 0 24 21" fill="none" xmlns="http://www.w3.org/2000/svg">
<path fill-rule="evenodd" clip-rule="evenodd" d="M1.64987 9.04036C8.09231 6.07678 12.3883 4.123 14.5378 3.17903C20.675 0.483813 21.9503 0.0156247 22.7815 0.000164837C22.9643 -0.00323539 23.3731 0.0446012 23.6379 0.271446C23.8614 0.46299 23.9229 0.721737 23.9524 0.903342C23.9818 1.08495 24.0185 1.49865 23.9893 1.8219C23.6568 5.51145 22.2177 14.465 21.4856 18.5974C21.1758 20.3459 20.5658 20.9322 19.9753 20.9896C18.6919 21.1143 17.7174 20.0941 16.4744 19.2338C14.5294 17.8876 13.4305 17.0496 11.5425 15.736C9.36064 14.2179 10.7751 13.3835 12.0185 12.0199C12.344 11.663 17.9985 6.23264 18.1079 5.74002C18.1216 5.67841 18.1343 5.44875 18.0051 5.32749C17.8759 5.20622 17.6851 5.24769 17.5475 5.28067C17.3524 5.32742 14.2452 7.49585 8.22584 11.786C7.34386 12.4254 6.545 12.737 5.82924 12.7206C5.04018 12.7026 3.52233 12.2496 2.39397 11.8623C1.00999 11.3873 -0.0899676 11.1362 0.00581423 10.3295C0.0557033 9.90932 0.603723 9.47961 1.64987 9.04036Z" fill="#FDF9EE"/>
</svg>
