<svg width="206" height="231" viewBox="0 0 206 231" fill="none" xmlns="http://www.w3.org/2000/svg">
<path fill-rule="evenodd" clip-rule="evenodd" d="M125.457 1.88705C157.856 -11.5809 214.59 49.9916 240.942 92.8646C267.294 135.672 292.066 162.673 292 230.572C292 305.846 263.405 296.13 226.119 305.846C188.833 315.562 76.324 327.339 18.9776 293.445C-15.6754 272.963 0.34773 174.527 41.0615 108.209C53.7764 87.5961 93.0585 15.3552 125.457 1.88705ZM244.39 156.994C242.236 136.433 163.783 38.7069 135.633 45.473C107.557 52.2343 46.2593 144.459 39.0371 169.837C35.2443 183.142 36.074 239.591 47.7598 276.418C52.418 290.924 237.608 288.257 247.193 269.565C256.854 250.867 246.291 175.089 244.39 156.994Z" fill="#B77F35"/>
</svg>
