<svg width="243" height="348" viewBox="0 0 243 348" fill="none" xmlns="http://www.w3.org/2000/svg">
<path fill-rule="evenodd" clip-rule="evenodd" d="M154.153 -75.5691C195.465 -85.863 263.206 -94.6057 336.628 -51.5983C410.105 -8.59379 460.035 84.1954 446.902 165.684C433.794 247.145 393.799 306.959 328.596 342.945C263.368 378.96 119.753 358.732 85.7057 325.219C51.6579 291.707 -9.19454 250.517 1.17283 134.148C7.06501 68.1931 49.1561 16.8235 76.6546 -18.3382C104.181 -53.4745 136.994 -71.3033 154.153 -75.5691ZM56.4846 68.9541C41.2933 88.5197 7.25426 138.191 17.312 197C27.3952 255.78 74.2316 303.322 135.494 331.357C166.774 344.752 257.606 359.901 328.596 325.219C399.611 290.509 426.116 214.534 429.573 151.875C433.03 89.2169 408.402 3.21569 313.366 -43.5261C218.334 -90.214 160.817 -62.7102 125.535 -38.745C90.2504 -14.8337 78.9525 39.934 56.4846 68.9541Z" fill="#E6D5A5"/>
</svg>
