<svg width="288" height="190" viewBox="0 0 288 190" fill="none" xmlns="http://www.w3.org/2000/svg">
<path fill-rule="evenodd" clip-rule="evenodd" d="M-32.0996 221.41C-22.2692 170.76 -0.036396 159.282 20.0818 112.972C43.0577 60.2101 70.5489 -14.5936 146.335 2.4799C223.264 19.7818 284.705 74.6568 303.794 120.852C334.257 194.571 324.197 294.329 274.188 332.53C235.094 362.337 204.346 365.193 131.475 367.876C38.3058 371.308 -47.9884 302.837 -32.0996 221.41ZM35.2848 317.929C124.85 365.861 204.241 349.564 261.795 317.929C286.657 304.282 307.119 256.236 295.803 198.963C284.429 141.69 271.721 113.423 228.912 67.5127C186.104 21.6597 124.216 18.2401 98.8972 35.0281C73.578 51.8732 56.8566 103.93 42.7395 137.392C27.8795 172.624 -9.1241 212.73 -6.43786 245.963C-3.86594 277.37 15.9097 306.338 35.2848 317.929Z" fill="#E9B88A"/>
</svg>
