<svg width="169" height="245" viewBox="0 0 169 245" fill="none" xmlns="http://www.w3.org/2000/svg">
<path fill-rule="evenodd" clip-rule="evenodd" d="M8.88676 142.715C22.4903 112.794 53.5094 44.2299 66.6525 11.179C79.8375 -21.872 110.222 -59.5131 158.651 -41.1932C212.646 -20.745 263.343 44.5054 277.491 78.2241C291.597 111.943 297.448 208.609 255.926 228.598C214.446 248.629 108.171 248.295 61.6265 238.363C15.0816 228.389 -16.1856 197.967 8.88676 142.715ZM42.8747 196.214C80.1692 241.91 230.603 226.97 247.011 214.242C263.461 201.556 273.925 179.898 265.596 138.041C257.266 96.1853 239.184 64.0107 207.833 30.459C176.441 -3.051 158.358 -13.3589 136.844 -7.64174C108.088 0.0367737 101.185 31.3006 78.7496 65.2696C63.3044 88.5555 52.2088 121.349 42.6654 142.34C33.122 163.33 32.4523 183.445 42.8747 196.214Z" fill="#B0A68D"/>
</svg>
