<svg preserveAspectRatio="none" width="100%" height="100%" overflow="visible" style="display: block;" viewBox="0 0 1342.93 1330.63" fill="none" xmlns="http://www.w3.org/2000/svg">
<g id="Group 302">
<path id="Vector" opacity="0.85" fill-rule="evenodd" clip-rule="evenodd" d="M533.159 669.741C554.441 635.226 620.192 514.265 674.421 491.714C728.651 469.163 823.615 572.261 867.723 644.048C911.832 715.724 953.294 760.935 953.184 874.625C953.184 1000.66 905.321 984.397 842.912 1000.66C780.503 1016.93 592.181 1036.65 496.193 979.901C438.191 945.607 465.011 780.784 533.159 669.741ZM719.298 589.352C677.505 596.299 578.121 724.862 564.889 761.251C557.942 780.328 553.228 863.046 566.461 918.182C571.754 939.906 843.022 955.454 859.011 929.099C875.111 902.744 867.613 790.709 866.73 764.023C865.738 733.698 761.201 582.405 719.298 589.352Z" fill="var(--fill-0, #F5EBD9)"/>
<path id="Vector_2" opacity="0.75" fill-rule="evenodd" clip-rule="evenodd" d="M315.451 827.489C352.462 745.836 436.856 558.73 472.615 468.536C508.487 378.343 591.156 275.623 722.915 325.616C869.822 381.418 1007.75 559.481 1046.24 651.497C1084.62 743.512 1100.54 1007.31 987.573 1061.85C874.718 1116.52 585.576 1115.61 458.94 1088.5C332.305 1061.28 247.236 978.267 315.451 827.489ZM407.922 973.483C509.39 1098.18 918.677 1057.41 963.318 1022.68C1008.07 988.06 1036.54 928.956 1013.88 814.734C991.219 700.512 942.023 612.71 856.726 521.15C771.316 429.704 722.119 401.574 663.584 417.176C585.348 438.13 566.567 523.446 505.527 616.145C463.505 679.691 433.317 769.181 407.353 826.463C381.388 883.745 379.566 938.635 407.922 973.483Z" fill="var(--fill-0, #F5EBD9)"/>
<path id="Vector_3" opacity="0.45" fill-rule="evenodd" clip-rule="evenodd" d="M154.841 794.663C183.875 644.936 249.538 611.006 308.957 474.107C376.815 318.135 458.009 97.0041 681.841 147.476C909.048 198.623 1090.51 360.841 1146.89 497.402C1236.86 715.325 1207.15 1010.22 1059.45 1123.15C943.988 1211.27 853.174 1219.71 637.952 1227.64C362.781 1237.78 107.914 1035.37 154.841 794.663ZM353.858 1079.99C618.384 1221.68 852.864 1173.51 1022.85 1079.99C1096.28 1039.65 1156.71 897.616 1123.29 728.308C1089.7 558.999 1052.16 475.439 925.729 339.722C799.297 204.174 616.514 194.065 541.735 243.693C466.956 293.489 417.569 447.377 375.875 546.295C331.987 650.445 222.698 769.005 230.632 867.248C238.228 960.089 296.634 1045.72 353.858 1079.99Z" fill="var(--fill-0, #F5EBD9)"/>
<path id="Vector_4" opacity="0.25" fill-rule="evenodd" clip-rule="evenodd" d="M461.06 25.1532C584.624 -5.55819 787.231 -31.6417 1006.83 96.6694C1226.6 224.972 1375.94 501.805 1336.65 744.925C1297.45 987.96 1177.83 1166.41 982.81 1273.78C787.718 1381.22 358.175 1320.88 256.34 1220.89C154.505 1120.91 -27.5003 998.02 3.50786 650.836C21.131 454.063 147.023 300.803 229.269 195.9C311.6 91.0719 409.74 37.8801 461.06 25.1532ZM168.942 456.333C123.505 514.707 21.697 662.9 51.7792 838.353C81.9374 1013.72 222.022 1155.56 405.253 1239.2C498.811 1279.17 770.484 1324.36 982.81 1220.89C1195.21 1117.34 1274.49 890.664 1284.83 703.725C1295.16 516.787 1221.5 260.205 937.259 120.752C653.023 -18.5394 480.993 63.5173 375.467 135.017C269.933 206.355 236.142 369.753 168.942 456.333Z" fill="var(--fill-0, #F5EBD9)"/>
<path id="Vector_5" fill-rule="evenodd" clip-rule="evenodd" d="M746.816 788.537C754.121 779.843 793.662 782.318 800.363 789.541C806.998 796.763 799.492 832.476 789.105 841.772C784.748 845.718 760.421 844.916 756.467 841.505C748.827 835.018 739.511 797.165 746.816 788.537Z" fill="var(--fill-0, #F5EBD9)"/>
</g>
</svg>
