<svg width="64" height="64" viewBox="0 0 69 69" fill="none" xmlns="http://www.w3.org/2000/svg">
  <path fill-rule="evenodd" clip-rule="evenodd" d="M27.2877 34.2782C28.377 32.5117 31.7422 26.3208 34.5177 25.1666C37.2933 24.0124 42.1536 29.2891 44.4112 32.9632C46.6687 36.6317 48.7908 38.9457 48.7851 44.7645C48.7851 51.2154 46.3355 50.3827 43.1413 51.2154C39.9471 52.048 30.3086 53.0573 25.3958 50.1526C22.4271 48.3974 23.7998 39.9616 27.2877 34.2782ZM36.8146 30.1638C34.6756 30.5194 29.589 37.0994 28.9117 38.9618C28.5561 39.9382 28.3149 44.1719 28.9922 46.9938C29.2631 48.1056 43.1469 48.9014 43.9653 47.5525C44.7893 46.2037 44.4055 40.4695 44.3603 39.1037C44.3096 37.5516 38.9592 29.8083 36.8146 30.1638Z" fill="#4A4A4A"/>
  <path fill-rule="evenodd" clip-rule="evenodd" d="M16.1452 42.352C18.0395 38.1729 22.3589 28.5965 24.189 23.9803C26.025 19.3641 30.2561 14.1068 36.9998 16.6655C44.5186 19.5215 51.5781 28.635 53.5482 33.3445C55.5124 38.054 56.3272 51.5552 50.5453 54.3471C44.7692 57.1448 29.9705 57.0982 23.4892 55.711C17.0078 54.318 12.6539 50.069 16.1452 42.352ZM20.878 49.8241C26.0712 56.2064 47.0191 54.1198 49.3039 52.3421C51.5945 50.5702 53.0517 47.5452 51.8918 41.6992C50.7319 35.8531 48.214 31.3593 43.8484 26.6731C39.477 21.9928 36.959 20.5531 33.9631 21.3516C29.9589 22.4241 28.9977 26.7907 25.8736 31.5351C23.7228 34.7875 22.1778 39.3677 20.8488 42.2995C19.5199 45.2313 19.4267 48.0406 20.878 49.8241Z" fill="#4A4A4A"/>
  <path fill-rule="evenodd" clip-rule="evenodd" d="M7.92508 40.6719C9.41107 33.0086 12.7718 31.272 15.8129 24.2654C19.286 16.2825 23.4416 4.96479 34.8976 7.548C46.5264 10.1658 55.8138 18.4683 58.6994 25.4577C63.3043 36.6112 61.7836 51.7045 54.2241 57.4843C48.3147 61.9941 43.6667 62.4261 32.6513 62.8322C18.5677 63.3513 5.5233 52.9918 7.92508 40.6719ZM18.111 55.2752C31.6498 62.5272 43.6508 60.0615 52.3508 55.2752C56.109 53.2104 59.202 45.9411 57.4914 37.2757C55.7722 28.6103 53.8511 24.3336 47.3802 17.3874C40.9092 10.4499 31.5541 9.9325 27.7268 12.4725C23.8995 15.0212 21.3719 22.8973 19.2379 27.9601C16.9916 33.2906 11.3981 39.3587 11.8042 44.3868C12.1929 49.1386 15.1823 53.5214 18.111 55.2752Z" fill="#4A4A4A"/>
  <path fill-rule="evenodd" clip-rule="evenodd" d="M23.5977 1.28737C29.9218 -0.284475 40.2915 -1.61947 51.531 4.94766C62.7788 11.5143 70.4222 25.683 68.4117 38.1262C66.4051 50.565 60.2827 59.6985 50.3015 65.1935C40.3164 70.6928 18.3319 67.6041 13.1198 62.4868C7.90779 57.3695 -1.4075 51.0799 0.179537 33.3106C1.08151 23.2395 7.52481 15.3955 11.7343 10.0264C15.9481 4.66118 20.971 1.93875 23.5977 1.28737ZM8.64666 23.3557C6.32117 26.3433 1.11048 33.9281 2.65013 42.908C4.19366 51.8836 11.3634 59.1431 20.7414 63.424C25.5298 65.4694 39.4344 67.7826 50.3015 62.4868C61.1725 57.1867 65.2299 45.5853 65.759 36.0176C66.2882 26.4498 62.5181 13.3176 47.9701 6.18026C33.4225 -0.948869 24.6178 3.2509 19.2169 6.91032C13.8155 10.5615 12.086 18.9244 8.64666 23.3557Z" fill="#4A4A4A"/>
  <path fill-rule="evenodd" clip-rule="evenodd" d="M37.7469 39.889C38.2538 39.2844 40.9981 39.4565 41.4632 39.9588C41.9237 40.4611 41.4027 42.9449 40.6818 43.5914C40.3795 43.8658 38.6911 43.81 38.4167 43.5728C37.8864 43.1216 37.2399 40.489 37.7469 39.889Z" fill="#4A4A4A"/>
</svg>
