<svg width="223" height="69" viewBox="0 0 223 69" fill="none" xmlns="http://www.w3.org/2000/svg">
<path fill-rule="evenodd" clip-rule="evenodd" d="M27.2877 34.2782C28.377 32.5117 31.7422 26.3208 34.5177 25.1666C37.2933 24.0124 42.1536 29.2891 44.4112 32.9632C46.6687 36.6317 48.7908 38.9457 48.7851 44.7645C48.7851 51.2154 46.3355 50.3827 43.1413 51.2154C39.9471 52.048 30.3086 53.0573 25.3958 50.1526C22.4271 48.3974 23.7998 39.9616 27.2877 34.2782ZM36.8146 30.1638C34.6756 30.5194 29.589 37.0994 28.9117 38.9618C28.5561 39.9382 28.3149 44.1719 28.9922 46.9938C29.2631 48.1056 43.1469 48.9014 43.9653 47.5525C44.7893 46.2037 44.4055 40.4695 44.3603 39.1037C44.3096 37.5516 38.9592 29.8083 36.8146 30.1638Z" fill="#FDF9EE"/>
<path fill-rule="evenodd" clip-rule="evenodd" d="M16.1452 42.352C18.0395 38.1729 22.3589 28.5965 24.189 23.9803C26.025 19.3641 30.2561 14.1068 36.9998 16.6655C44.5186 19.5215 51.5781 28.635 53.5482 33.3445C55.5124 38.054 56.3272 51.5552 50.5453 54.3471C44.7692 57.1448 29.9705 57.0982 23.4892 55.711C17.0078 54.318 12.6539 50.069 16.1452 42.352ZM20.878 49.8241C26.0712 56.2064 47.0191 54.1198 49.3039 52.3421C51.5945 50.5702 53.0517 47.5452 51.8918 41.6992C50.7319 35.8531 48.214 31.3593 43.8484 26.6731C39.477 21.9928 36.959 20.5531 33.9631 21.3516C29.9589 22.4241 28.9977 26.7907 25.8736 31.5351C23.7228 34.7875 22.1778 39.3677 20.8488 42.2995C19.5199 45.2313 19.4267 48.0406 20.878 49.8241Z" fill="#FDF9EE"/>
<path fill-rule="evenodd" clip-rule="evenodd" d="M7.92508 40.6719C9.41107 33.0087 12.7718 31.2721 15.8129 24.2655C19.286 16.2826 23.4416 4.96485 34.8976 7.54806C46.5264 10.1658 55.8138 18.4684 58.6994 25.4577C63.3043 36.6113 61.7836 51.7045 54.2241 57.4843C48.3147 61.9942 43.6667 62.4262 32.6513 62.8322C18.5677 63.3514 5.5233 52.9918 7.92508 40.6719ZM18.111 55.2753C31.6498 62.5273 43.6508 60.0616 52.3508 55.2753C56.109 53.2105 59.202 45.9412 57.4914 37.2758C55.7722 28.6104 53.8511 24.3336 47.3802 17.3875C40.9092 10.4499 31.5541 9.93256 27.7268 12.4726C23.8995 15.0212 21.3719 22.8974 19.2379 27.9601C16.9916 33.2907 11.3981 39.3587 11.8042 44.3869C12.1929 49.1386 15.1823 53.5215 18.111 55.2753Z" fill="#FDF9EE"/>
<path fill-rule="evenodd" clip-rule="evenodd" d="M23.5977 1.28737C29.9218 -0.284475 40.2915 -1.61947 51.531 4.94766C62.7788 11.5143 70.4222 25.683 68.4117 38.1262C66.4051 50.565 60.2827 59.6985 50.3015 65.1935C40.3164 70.6928 18.3319 67.6041 13.1198 62.4868C7.90779 57.3695 -1.4075 51.0799 0.179537 33.3106C1.08151 23.2395 7.52481 15.3955 11.7343 10.0264C15.9481 4.66118 20.971 1.93875 23.5977 1.28737ZM8.64666 23.3557C6.32117 26.3433 1.11048 33.9281 2.65013 42.908C4.19366 51.8836 11.3634 59.1431 20.7414 63.424C25.5298 65.4694 39.4344 67.7826 50.3015 62.4868C61.1725 57.1867 65.2299 45.5853 65.759 36.0176C66.2882 26.4498 62.5181 13.3176 47.9701 6.18026C33.4225 -0.948869 24.6178 3.2509 19.2169 6.91032C13.8155 10.5615 12.086 18.9244 8.64666 23.3557Z" fill="#FDF9EE"/>
<path fill-rule="evenodd" clip-rule="evenodd" d="M37.7469 39.889C38.2538 39.2844 40.9981 39.4565 41.4632 39.9588C41.9237 40.4611 41.4027 42.9449 40.6818 43.5914C40.3795 43.8658 38.6911 43.81 38.4167 43.5728C37.8864 43.1216 37.2399 40.489 37.7469 39.889Z" fill="#FDF9EE"/>
<path d="M197.734 27.6035L198.081 29.1625C196.903 29.8208 195.171 30.1326 192.919 30.1326C189.593 30.1326 186.891 29.0932 184.777 27.0492C182.664 24.9706 181.625 22.2337 181.625 18.8039C181.625 15.2355 182.733 12.4987 184.951 10.5932C187.168 8.65314 189.905 7.68311 193.196 7.68311C195.309 7.68311 196.972 7.9949 198.219 8.58386L197.838 10.2121C196.972 9.51925 195.171 8.86101 193.404 8.86101C189.42 8.86101 184.015 11.4247 184.015 18.8385C184.015 21.6794 184.847 24.0698 186.475 26.0099C188.103 27.95 190.286 28.92 192.953 28.9546C194.859 28.9893 196.452 28.5389 197.734 27.6035Z" fill="#FDF9EE"/>
<path d="M166.048 19.0811L165.563 17.9379L166.741 17.9032C171.417 17.7993 174.328 20.2244 174.328 24.5203C174.328 27.1186 172.665 28.9894 170.309 29.4051C169.443 29.6823 168.334 29.7862 167.052 29.7516C165.805 29.7516 164.939 29.6823 164.142 29.6823H161.821C161.96 27.7422 162.029 25.4903 162.029 22.9266V14.8892C162.029 12.0137 161.96 9.79649 161.856 8.16821H164.385C164.246 9.13825 164.177 11.3901 164.177 14.8892V28.5737C164.558 28.5737 165.078 28.5737 165.805 28.6083H167.433C168.646 28.6083 169.581 28.4004 170.274 27.9501C171.591 27.2225 172.249 26.0446 172.249 24.3817C172.249 22.4416 171.521 20.9866 170.586 20.2937C170.136 19.9126 169.616 19.6354 168.958 19.4622C167.711 19.0465 166.983 19.0465 166.048 19.0811Z" fill="#FDF9EE"/>
<path d="M133.993 28.8162C134.928 28.8162 135.76 28.1926 136.591 26.2871C137.042 25.3517 137.388 24.1392 137.7 22.7188C138.289 19.8433 138.739 15.1317 138.739 9.27683L136.834 9.34612V8.16821H151.592C151.488 9.03432 151.419 11.8059 151.419 16.5175V22.9266C151.419 26.4604 151.488 28.7122 151.627 29.6823H149.236V14.8892C149.236 12.7066 149.202 10.8705 149.098 9.34612C148.093 9.27683 145.114 9.24218 140.16 9.24218C140.16 15.0624 139.709 20.0858 138.739 24.0006C137.804 27.9154 136.141 30.2712 134.062 30.1673C133.265 30.1326 132.676 29.9248 132.295 29.5437L132.642 28.4004L132.815 28.5044C133.057 28.6429 133.542 28.8162 133.993 28.8162Z" fill="#FDF9EE"/>
<path d="M123.98 13.7459L118.506 26.1486C116.705 30.2019 114.799 30.9295 111.439 29.2665L111.751 28.1233C112.825 28.6429 113.691 28.9201 114.383 28.9201C114.903 28.9201 115.388 28.539 115.908 27.8115C116.427 27.0839 116.739 26.3218 116.774 25.5942L112.062 13.8152C110.85 10.8012 109.984 8.89574 109.499 8.16821H112.547C112.513 8.20286 112.651 8.61859 112.928 9.48469L114.037 12.7412C114.522 14.0924 114.972 15.2703 115.388 16.3096L118.298 23.6195L122.837 12.9491C123.98 10.2469 124.569 8.65323 124.638 8.16821H126.648C125.643 10.1083 124.777 11.9791 123.98 13.7459Z" fill="#FDF9EE"/>
<path d="M84.7533 22.9613V14.9238C84.7533 13.3302 84.684 11.0783 84.5454 8.16821H101.937C101.798 10.1083 101.729 12.3602 101.729 14.9238V22.9613C101.729 25.0746 101.798 27.3265 101.902 29.6823H99.3385C99.4771 28.9894 99.5464 26.2178 99.5464 21.4023V9.65791C98.2992 9.45005 96.2552 9.34612 93.4143 9.34612H92.9986C90.0538 9.34612 88.0445 9.45005 86.9012 9.65791V22.9613C86.9012 24.5896 86.9705 26.8414 87.1091 29.6823H84.5801C84.5801 29.4051 84.5801 28.8508 84.6147 27.9847C84.7186 26.2871 84.7533 24.451 84.7533 22.9613Z" fill="#FDF9EE"/>
<path d="M208.311 47.7325L207.826 46.5892L209.004 46.5546C213.681 46.4507 216.591 48.8758 216.591 53.1716C216.591 55.77 214.928 57.6407 212.572 58.0565C211.706 58.3336 210.597 58.4376 209.316 58.4029C208.068 58.4029 207.202 58.3336 206.406 58.3336H204.084C204.223 56.3936 204.292 54.1417 204.292 51.578V43.5406C204.292 40.6651 204.223 38.4479 204.119 36.8196H206.648C206.509 37.7896 206.44 40.0415 206.44 43.5406V57.225C206.821 57.225 207.341 57.225 208.068 57.2597H209.697C210.909 57.2597 211.845 57.0518 212.538 56.6014C213.854 55.8739 214.512 54.696 214.512 53.0331C214.512 51.093 213.785 49.6379 212.849 48.9451C212.399 48.564 211.879 48.2868 211.221 48.1136C209.974 47.6979 209.246 47.6979 208.311 47.7325ZM220.679 51.6127V43.5752C220.679 41.4965 220.61 39.2447 220.506 36.8196H223C223 37.1314 222.965 37.6857 222.931 38.5518C222.896 40.2494 222.827 42.0855 222.827 43.5752V51.6127C222.827 52.3402 222.827 53.1716 222.862 54.0377C222.896 55.8046 223 57.7793 223 58.3336H220.506C220.506 58.2297 220.679 55.0078 220.679 51.6127Z" fill="#FDF9EE"/>
<path d="M180.276 38.3093V36.8196H195.831V38.3093C193.787 38.1361 191.605 38.0321 189.214 37.9975C189.18 38.725 189.145 39.695 189.145 40.873V51.6127C189.145 53.726 189.214 55.9778 189.318 58.3336H186.824C186.928 54.5574 186.963 52.3055 186.963 51.6127V40.873C186.963 39.314 186.963 38.3786 186.928 37.9975C184.815 38.0321 182.597 38.1361 180.276 38.3093Z" fill="#FDF9EE"/>
<path d="M162.041 58.8193C158.75 58.8193 155.978 57.78 153.761 55.6667C151.544 53.5534 150.435 50.8511 150.435 47.6292C150.435 44.2687 151.544 41.5665 153.796 39.4878C156.048 37.3745 158.75 36.3352 161.972 36.3352C165.263 36.3352 168 37.4092 170.217 39.5225C172.434 41.6358 173.543 44.2687 173.543 47.4906C173.543 50.8511 172.434 53.5534 170.183 55.6667C167.931 57.78 165.229 58.8193 162.041 58.8193ZM152.861 47.6639C152.895 50.47 153.796 52.8258 155.528 54.7659C157.295 56.706 159.443 57.676 162.041 57.6414C164.605 57.6067 166.753 56.6367 168.52 54.7313C170.287 52.7912 171.153 50.3661 171.118 47.4906C171.083 44.6845 170.183 42.3287 168.416 40.3886C166.684 38.4485 164.536 37.4785 161.937 37.5131C159.374 37.5478 157.226 38.5178 155.459 40.4579C153.692 42.3633 152.826 44.7884 152.861 47.6639Z" fill="#FDF9EE"/>
<path d="M135.366 47.7325L134.881 46.5892L136.059 46.5546C140.216 46.4507 142.987 48.3561 143.507 51.8205C143.611 52.3748 143.646 52.9638 143.611 53.5527C143.507 56.151 141.948 57.6061 139.627 58.0565C138.726 58.3336 137.652 58.4376 136.37 58.4029C135.123 58.4029 134.257 58.3336 133.46 58.3336H131.139C131.278 56.3936 131.347 54.1417 131.347 51.578V43.5406C131.347 40.6651 131.278 38.4479 131.174 36.8196H140.978V38.3093C140.181 38.1014 137.721 37.9975 133.599 37.9628C133.529 40.3186 133.495 42.1894 133.495 43.5406V57.225C133.876 57.225 134.396 57.225 135.123 57.2597H136.751C137.964 57.2597 138.899 57.0518 139.592 56.6014C140.839 55.9085 141.463 54.7306 141.463 53.0331C141.463 51.093 140.701 49.6379 139.835 48.9451C139.384 48.564 138.865 48.2868 138.241 48.1136C137.029 47.6979 136.301 47.6979 135.366 47.7325Z" fill="#FDF9EE"/>
<path d="M114.78 36.7161L120.185 51.5784C121.467 55.0428 122.367 57.2947 122.887 58.334H119.977C119.665 57.0522 118.972 54.8003 117.864 51.5784L116.79 48.4951C116.478 48.4604 115.577 48.4604 114.122 48.4604H112.182C110.9 48.4604 110.138 48.4604 109.826 48.4951L108.44 52.0981C107.54 54.4193 106.778 56.4979 106.189 58.334H104.422C105.08 56.879 106.015 54.7311 107.159 51.8902L113.083 36.8546L114.78 36.7161ZM112.043 47.3518H114.122C115.127 47.3518 116.235 47.3172 116.374 47.3172L113.464 39.0026L110.277 47.3172C110.484 47.3518 111.073 47.3518 112.043 47.3518Z" fill="#FDF9EE"/>
<path d="M91.1277 45.2041C92.8945 45.4466 94.3842 46.1049 95.5968 47.1788C96.8093 48.2528 97.4329 49.6386 97.4329 51.3361C97.4329 53.7959 96.8093 55.632 95.5968 56.7753C94.3842 57.9185 92.8599 58.5768 91.0238 58.75C90.0884 58.8193 89.1183 58.7847 88.079 58.6461C86.0003 58.3689 84.961 58.0225 84.5453 57.8493L84.7532 56.9139L85.3421 57.0871C87.594 57.6067 95.3196 59.3043 95.3196 51.3015C95.3543 47.1442 91.1277 45.7931 89.6726 45.7931H88.7026C88.6333 45.8277 88.4947 45.8277 88.3215 45.8277L88.2522 44.7884C89.5341 44.7884 90.7466 44.3727 91.8899 43.5066C93.0331 42.6405 93.6221 41.6704 93.6221 40.5618C93.6221 38.5178 92.4095 37.4785 90.0191 37.4785C88.8412 37.4785 87.5593 37.8942 86.1736 38.7257L85.9311 37.6517C86.2429 37.4092 86.7972 37.132 87.6633 36.8202C88.5294 36.5084 89.4648 36.3352 90.4348 36.3352C93.6567 36.3352 95.77 37.8249 95.77 40.5964C95.77 41.6358 95.3196 42.6058 94.3842 43.4719C93.4835 44.338 92.4095 44.927 91.1277 45.2041Z" fill="#FDF9EE"/>
</svg>
