<svg width="33" height="19" viewBox="0 0 33 19" fill="none" xmlns="http://www.w3.org/2000/svg">
<path d="M32.3772 16.87C32.3357 16.7864 32.3001 16.7148 32.2644 16.6551C31.7006 15.6345 30.6204 14.3751 29.0297 12.8889L28.9941 12.8531L28.9763 12.8352L28.9585 12.8173H28.9407C28.2165 12.1249 27.7595 11.6594 27.5696 11.4206C27.2194 10.967 27.1423 10.5074 27.3322 10.0419C27.4687 9.68974 27.9791 8.94366 28.8576 7.80962C29.3205 7.20679 29.6885 6.72333 29.9615 6.35925C31.9143 3.74499 32.763 2.07377 32.5019 1.35156L32.401 1.18444C32.3357 1.08298 32.1576 0.987477 31.8786 0.903916C31.5937 0.820355 31.2317 0.802449 30.7925 0.862136L25.9136 0.897947C25.8365 0.868104 25.7237 0.874073 25.5753 0.903916C25.4269 0.939728 25.3557 0.957634 25.3557 0.957634L25.2726 0.999414L25.2073 1.05313C25.148 1.08894 25.0886 1.14863 25.0233 1.23219C24.9581 1.31575 24.8987 1.41722 24.8572 1.53062C24.323 2.90341 23.7235 4.1807 23.0409 5.36248C22.6255 6.06678 22.2397 6.67558 21.8895 7.19485C21.5393 7.71413 21.2485 8.09015 21.0111 8.33486C20.7736 8.57958 20.56 8.77654 20.3641 8.91979C20.1742 9.069 20.0258 9.12869 19.9249 9.10482C19.824 9.08094 19.729 9.05707 19.6341 9.03916C19.4738 8.93769 19.3492 8.80042 19.2542 8.62136C19.1592 8.4423 19.094 8.22146 19.0583 7.95884C19.0227 7.69025 19.0049 7.46344 18.999 7.26648C18.993 7.07548 18.999 6.80092 19.0049 6.44878C19.0168 6.09663 19.0227 5.85788 19.0227 5.73254C19.0227 5.3028 19.0287 4.83128 19.0465 4.32394C19.0643 3.81661 19.0761 3.41671 19.088 3.12425C19.0999 2.83178 19.1058 2.51545 19.1058 2.18717C19.1058 1.8589 19.088 1.60225 19.0465 1.41125C19.0049 1.22622 18.9456 1.04119 18.8684 0.868104C18.7912 0.695014 18.6725 0.557736 18.5182 0.456269C18.3639 0.360771 18.174 0.283178 17.9484 0.223492C17.349 0.0862136 16.5892 0.01459 15.6633 0.00265272C13.5622 -0.0212218 12.2149 0.116057 11.6154 0.414488C11.378 0.53983 11.1644 0.706951 10.9744 0.927791C10.7726 1.17847 10.7429 1.31575 10.8913 1.33963C11.568 1.44109 12.0487 1.68581 12.3336 2.07377L12.4345 2.2767C12.5117 2.42592 12.5948 2.68854 12.6719 3.05859C12.7491 3.43462 12.8025 3.84645 12.8262 4.30007C12.8797 5.12971 12.8797 5.83997 12.8262 6.43087C12.7669 7.02176 12.7135 7.48135 12.666 7.80962C12.6126 8.1379 12.5413 8.40649 12.4345 8.60942C12.3336 8.81235 12.2624 8.93769 12.2327 8.98544C12.1971 9.03319 12.1734 9.05707 12.1496 9.069C12.0012 9.12272 11.8528 9.15257 11.6926 9.15257C11.5323 9.15257 11.3424 9.07497 11.1169 8.91382C10.8913 8.75267 10.6539 8.5378 10.4165 8.25727C10.1732 7.97674 9.90013 7.58878 9.59149 7.08742C9.28879 6.58605 8.96828 5.99516 8.64184 5.31474L8.36881 4.81934C8.19669 4.503 7.96521 4.03745 7.67438 3.42865C7.37761 2.81985 7.12239 2.23492 6.89685 1.66193C6.80782 1.42319 6.67131 1.24413 6.48731 1.11879L6.40422 1.06507C6.3508 1.01732 6.25584 0.969571 6.13119 0.921822C6.00655 0.868104 5.87597 0.832292 5.73946 0.808418L1.09804 0.84423C0.623209 0.84423 0.302702 0.951665 0.130577 1.16654L0.0652886 1.268C0.017806 1.34559 0 1.43512 0 1.56047C0 1.68581 0.035612 1.84099 0.100901 2.02005C0.777528 3.62561 1.51944 5.16552 2.31478 6.65768C3.11011 8.14984 3.80455 9.34356 4.39214 10.2508C4.97974 11.158 5.57921 12.0175 6.19055 12.8233C6.80189 13.629 7.20549 14.1483 7.40135 14.3751C7.59722 14.6019 7.75747 14.775 7.87024 14.8884L8.29165 15.3003C8.56468 15.5748 8.96235 15.8971 9.48465 16.2791C10.0129 16.6611 10.5946 17.0371 11.2296 17.4072C11.8707 17.7772 12.6126 18.0757 13.4554 18.3084C14.3041 18.5412 15.1292 18.6367 15.9304 18.589H17.8772C18.2749 18.5532 18.5716 18.4278 18.7734 18.2129L18.8387 18.1294C18.8862 18.0637 18.9278 17.9563 18.9634 17.813C19.0049 17.6698 19.0227 17.5146 19.0227 17.3415C19.0109 16.8521 19.0465 16.4104 19.1355 16.0225C19.2186 15.6285 19.3136 15.3361 19.4263 15.1391C19.5332 14.9421 19.6578 14.775 19.7884 14.6377C19.9249 14.5005 20.0199 14.4169 20.0792 14.393C20.1326 14.3632 20.1801 14.3453 20.2157 14.3333C20.4888 14.2438 20.8033 14.3333 21.1713 14.596C21.5393 14.8645 21.8836 15.1928 22.2041 15.5868C22.5246 15.9807 22.9104 16.4164 23.3674 16.9058C23.8185 17.3952 24.2161 17.7593 24.5545 17.9981L24.8928 18.201C25.1183 18.3383 25.4151 18.4636 25.7771 18.577C26.1392 18.6904 26.4538 18.7203 26.7268 18.6606L31.0655 18.5949C31.4928 18.5949 31.8312 18.5233 32.0626 18.3801C32.3001 18.2368 32.4425 18.0816 32.484 17.9085C32.5315 17.7355 32.5315 17.5445 32.49 17.3296C32.4544 17.1088 32.4128 16.9595 32.3772 16.87Z" fill="#FDF9EE"/>
</svg>
