<svg width="321" height="320" viewBox="0 0 321 320" fill="none" xmlns="http://www.w3.org/2000/svg">
<path fill-rule="evenodd" clip-rule="evenodd" d="M173.515 0.452144C203.256 4.67146 249.888 16.881 286.655 64.2459C323.457 111.623 331.781 185.156 301.796 234.681C271.834 284.194 229.957 312.527 177.836 318.705C125.691 324.894 37.0038 273.801 23.5158 243.012C10.0279 212.224 -18.9887 169.362 18.3419 96.4227C39.5103 55.0876 80.5429 32.8 107.77 17.1979C135.009 1.61986 161.165 -1.30654 173.515 0.452144ZM71.656 68.6377C56.5775 77.3486 21.2608 100.659 12.4074 141.56C3.57806 182.45 21.7538 225.741 54.4912 260.156C71.4486 277.131 126.922 310.978 182.489 307.177C238.08 303.365 275.37 260.958 294.079 221.123C312.788 181.288 319.243 118.853 269.311 63.3503C219.366 7.88313 174.502 10.5751 145.119 16.8398C115.749 23.0686 93.9786 55.7007 71.656 68.6377Z" fill="#D4856A"/>
</svg>
